<?xml version="1.0" encoding="UTF-8"?>
<svg width="284px" height="184px" viewBox="0 0 284 184" version="1.1" xmlns="http://www.w3.org/2000/svg" xmlns:xlink="http://www.w3.org/1999/xlink">
    <title>Strawberries</title>
    <g id="Page-1" stroke="none" stroke-width="1" fill="none" fill-rule="evenodd">
        <g id="Homepage_Hover---ALL" transform="translate(-301.000000, -1967.000000)" fill-rule="nonzero">
            <g id="Strawberries" transform="translate(301.000000, 1969.000000)">
                <path d="M26.35,74.6 C26.35,74.6 7.06,81.92 3.74,97.22 C1.74,106.3 2.14,118.51 5.07,131.14 C7.07,139.78 8.39,144.44 13.07,151.75 C14.66,154.26 22.72,164.54 25.07,166.39 C31.07,171.15 36.55,173 41.7,176.39 C46.85,179.78 50.27,179.62 53.7,179.05 C61.7,177.72 77.64,171.05 87.62,153.11 C93.17,143.11 97.62,113.87 97.62,103.23 C97.62,92.59 85.62,74.63 85.62,74.63 C85.62,74.63 42.31,67.29 26.35,74.6 Z" id="Path" fill="#BF3C37"></path>
                <path d="M25.68,72.19 C17.9492224,75.0912022 11.1628107,80.0582191 6.06,86.55 C1.88,92.08 0.57,98.55 0.14,105.38 C-0.290311336,114.33081 0.575303326,123.296826 2.71,132 C3.46333812,135.589042 4.44534056,139.126254 5.65,142.59 C6.97048389,146.085472 8.64591269,149.43633 10.65,152.59 C13.4894671,156.864327 16.6378722,160.925168 20.07,164.74 C21.7174661,166.702524 23.605674,168.449621 25.69,169.94 C29.090001,172.197104 32.6267986,174.241032 36.28,176.06 C39.72,177.91 42.9,180.45 46.76,181.37 C49.5314165,181.925446 52.3902372,181.874274 55.14,181.22 C66.21,179 76.48,171.86 83.56,163.22 C87.5869324,158.454884 90.6777572,152.972147 92.67,147.06 C94.5076146,141.270278 95.9542049,135.363646 97,129.38 C98.13,123.21 99,116.99 99.62,110.75 C100.09,105.75 100.3,100.95 98.89,96.06 C97.0909628,90.3212094 94.6311316,84.810919 91.56,79.64 C90.56,77.91 89.56,76.2 88.5,74.53 C87.91,73.53 87.34,72.53 86.18,72.18 C84.0176041,71.7215867 81.8306722,71.387704 79.63,71.18 C74.76,70.52 69.88,69.97 64.98,69.56 C53.98,68.63 42.4,67.97 31.52,70.32 C29.321838,70.7878213 27.1797559,71.4884397 25.13,72.41 C23.9461641,73.112769 23.5454333,74.6355462 24.23,75.83 C24.9495896,76.9921184 26.4552102,77.3839319 27.65,76.72 C27.83,76.64 28.2,76.49 27.8,76.65 L28.38,76.42 L29.67,76 C30.62,75.7 31.59,75.45 32.57,75.23 C33.55,75.01 34.57,74.82 35.65,74.66 C36.73,74.5 37.47,74.41 38.65,74.29 C43.6073993,73.8550515 48.5873861,73.7348103 53.56,73.93 C58.45,74.08 63.34,74.42 68.22,74.93 C70.36,75.1366667 72.5,75.37 74.64,75.63 L77.49,75.98 L78.69,76.14 L79.41,76.24 C81.22,76.49 83.03,76.75 84.84,77.06 L83.34,75.91 C86.7662474,80.9818148 89.6996007,86.369675 92.1,92 C92.9629999,94.039019 93.6879673,96.1337404 94.27,98.27 C94.7836851,99.9992605 95.033167,101.796205 95.01,103.6 C94.9349166,107.137867 94.6745599,110.669372 94.23,114.18 C93.2403786,123.325221 91.5690629,132.383753 89.23,141.28 C88.71,143.2 88.14,145.11 87.48,146.99 C87.18,147.85 86.87,148.71 86.48,149.55 C86.65,149.12 86.25,150.07 86.19,150.2 C86.01,150.58 85.83,150.96 85.64,151.33 C83.1686789,156.019464 79.9802755,160.294286 76.19,164 C70.549078,169.665139 63.5547084,173.795672 55.87,176 C52.43,176.92 49.39,177.42 46,176 C43.24,174.81 40.76,172.91 38.11,171.5 C35.46,170.09 32.95,168.83 30.49,167.28 C28.6185093,166.172263 26.8976559,164.827846 25.37,163.28 C24.11,161.94 22.93,160.52 21.76,159.1 C19.4755802,156.423802 17.3326548,153.629989 15.34,150.73 C12.5461627,146.496866 10.4369526,141.849854 9.09,136.96 C7.31036505,130.787166 6.07892223,124.469329 5.41,118.08 C4.73298321,112.091636 4.84055869,106.040516 5.73,100.08 C6.35939656,95.8628987 8.11433656,91.893556 10.81,88.59 C15.0824965,83.6582071 20.4344051,79.7777312 26.45,77.25 L26.9,77.05 C26.06,77.46 26.5,77.22 26.71,77.14 C26.92,77.06 26.91,77.05 27.01,77.02 C28.3140072,76.6151248 29.0797298,75.267453 28.76,73.94 C28.3811162,72.6153186 27.0119078,71.8373593 25.68,72.19 Z" id="Path" fill="#222721"></path>
                <path d="M43.64,82.59 C43.64,82.59 47,88.57 49,91.9 C51,95.23 52.33,96.55 54.32,91.9 C56.31,87.25 59.6,80.59 59.6,80.59 C59.6,80.59 66.43,86.74 70.91,88.59 C85.54,94.59 71.57,79.28 71.57,79.28 C71.57,79.28 92.19,72.63 84.88,70.63 C77.57,68.63 56.94,65.31 56.94,65.31 L54.28,44.68 L45.64,44.68 L47.64,64.63 C47.64,64.63 45,69.28 33.66,68 C22.32,66.72 17.66,70 17.66,70 L32.96,78 C32.96,78 17.66,90 24.96,89.31 C29.84,88.8 37.65,89.9 43.64,82.59 Z" id="Path" fill="#E2E679"></path>
                <path d="M41.48,83.85 C42.7133333,86.0633333 43.9566667,88.2633333 45.21,90.45 C46.64,92.92 48.47,97.45 51.86,97.45 C53.86,97.45 55.24,95.68 56.06,94.03 C56.88,92.38 57.59,90.58 58.39,88.87 C59.48,86.53 60.61,84.2 61.76,81.87 L57.83,82.38 C60.0349438,84.3522988 62.3521487,86.1953783 64.77,87.9 C67.88,90.09 71.55,92.1 75.41,92.45 C78.41,92.72 80.61,90.52 79.94,87.45 C79.2845317,85.3077378 78.19528,83.3232575 76.74,81.62 C75.67,80.19 74.55,78.78 73.34,77.46 L72.24,81.64 C74.53,80.9 76.8,80.07 79.03,79.17 C82.03,77.97 86.03,76.66 88.1,74 C88.7126625,73.2519838 88.9767602,72.2779501 88.8258628,71.3229037 C88.6749655,70.3678573 88.1234345,69.5226929 87.31,69 C85.88,68.07 83.94,67.82 82.31,67.46 C77.42,66.36 72.49,65.46 67.56,64.61 C64.25,64.02 60.93,63.46 57.62,62.92 L59.45,65.33 L56.78,44.68 C56.7533995,43.3104577 55.6495423,42.2066005 54.28,42.18 L45.64,42.18 C44.2615648,42.1854809 43.1454809,43.3015648 43.14,44.68 L45.14,64.63 L45.48,63.37 C45.18,63.88 46,62.87 45.48,63.37 L45.03,63.8 C44.75,64.09 44.84,63.93 45.11,63.8 L44.65,64.13 C44.34,64.32 44.02,64.5 43.7,64.66 C43.38,64.82 43.04,64.94 43.49,64.77 L42.66,65.06 C41.5847964,65.3993082 40.4741909,65.6140477 39.35,65.7 C35.52,65.98 31.74,65.15 27.91,65.22 C25.1504727,65.2158535 22.405032,65.6133528 19.76,66.4 C18.5840955,66.7198458 17.4619566,67.2118347 16.43,67.86 C14.99,68.86 14.64,71.24 16.43,72.18 L31.73,80.18 L31.22,76.25 C27.7888024,78.7418023 24.690339,81.6621544 22,84.94 C20.49,86.94 19.67,90.14 22.59,91.39 C23.8421878,91.7766576 25.1673446,91.8656863 26.46,91.65 C28.19,91.57 29.94,91.54 31.67,91.35 C37.0022081,90.9192451 41.9497522,88.4041537 45.44,84.35 C46.3759104,83.3594371 46.3759104,81.8105629 45.44,80.82 C44.4564705,79.8570147 42.8835295,79.8570147 41.9,80.82 C39.5399627,83.7177962 36.1921246,85.6410224 32.5,86.22 C31.0057923,86.436724 29.4995508,86.5602959 27.99,86.59 C26.7840086,86.52609 25.5746485,86.5830405 24.38,86.76 C24.08,86.84 24.88,86.93 24.38,86.76 C23.88,86.59 24.72,86.91 24.7,86.9 C24.42,86.72 25.03,87.17 25.01,87.14 C25.3562291,87.4749097 25.5481282,87.9383642 25.54,88.42 C25.54,88.36 25.34,89.08 25.54,88.53 C25.66,88.22 25.19,89.09 25.54,88.59 C25.65,88.43 25.73,88.26 25.83,88.11 C25.93,87.96 26.07,87.76 26.2,87.59 C25.84,88.09 26.27,87.51 26.41,87.34 C27.922723,85.6306288 29.5605809,84.0362243 31.31,82.57 C32.44,81.57 33.6,80.57 34.78,79.69 C35.96,78.81 35.58,76.44 34.27,75.76 L18.97,67.76 L18.97,72.08 C19.13,71.97 19.29,71.88 19.45,71.79 L20.07,71.49 C20.49,71.27 19.8,71.59 19.98,71.49 L20.59,71.26 C22.6053539,70.5579423 24.7167097,70.1700735 26.85,70.11 C33.21,69.8 39.62,71.78 45.72,69.11 C47.6,68.27 50.23,66.63 50.11,64.27 C49.95,60.97 49.45,57.65 49.11,54.36 L48.11,44.64 L45.61,47.14 L54.25,47.14 L51.75,44.64 L54.41,65.25 C54.4336348,66.3681116 55.1776295,67.3425829 56.25,67.66 C63.25,68.79 70.25,70 77.15,71.4 C79.15,71.79 81.1,72.21 83.05,72.69 L84.18,72.98 C84.34,72.98 84.49,73.08 84.64,73.13 C83.99,72.93 84.35,72.98 84.53,73.13 C84.99,73.43 84.21,72.79 84.14,72.67 C83.8447143,72.1311341 83.8447143,71.4788659 84.14,70.94 C83.83,71.5 84.58,70.67 84.14,71 C83.99,71.1 83.28,71.68 83.95,71.2 C83.4018796,71.5904956 82.8308566,71.9478024 82.24,72.27 C81.59,72.62 80.93,72.95 80.24,73.27 L79.06,73.8 L78.46,74.06 L78.05,74.23 C75.69,75.19 73.2933333,76.0666667 70.86,76.86 C70.0375638,77.1303135 69.4104433,77.8023816 69.1976151,78.6415328 C68.9847869,79.4806841 69.2158039,80.3703957 69.81,81 C70.54,81.8 71.24,82.64 71.91,83.49 C71.91,83.55 72.42,84.13 72.19,83.83 C71.96,83.53 72.43,84.14 72.48,84.21 C72.8,84.65 73.12,85.09 73.48,85.54 C73.9811239,86.3362429 74.4417107,87.1572889 74.86,88 C75.17,88.58 74.79,87.71 74.86,88.08 C74.86,88.24 74.96,88.41 75.02,88.58 C75.16,88.99 75.02,88.91 75.02,88.49 C75.02,89.1 75.11,88.29 75.08,88.41 C75.2205589,87.9276899 75.5976899,87.5505589 76.08,87.41 C75.7,87.51 75.66,87.41 76.16,87.41 C75.95,87.41 75.69,87.41 75.48,87.41 C75.27,87.41 75.96,87.5 75.6,87.41 L75.19,87.34 L74.27,87.11 C73.4311823,86.8699062 72.6065445,86.5827854 71.8,86.25 C70.3198612,85.5691399 68.9098229,84.745222 67.59,83.79 C65.373701,82.262507 63.2592269,80.5923063 61.26,78.79 C60.7062529,78.25226 59.9373174,77.9967242 59.171855,78.096059 C58.4063926,78.1953938 57.7281505,78.6387313 57.33,79.3 C56.4433333,81.1933333 55.5666667,83.0933333 54.7,85 C54.0333333,86.4533333 53.3666667,87.9133333 52.7,89.38 C52.34,90.21 52.01,91.06 51.58,91.85 C51.46,92.07 51.11,92.61 51.07,92.68 C51.14,92.57 51.07,92.61 50.93,92.8 C51.1845623,92.5239259 51.5578821,92.3895308 51.93,92.44 C52.1466127,92.4420466 52.3594471,92.4969716 52.55,92.6 L52.39,92.5 C52.62,92.67 52.63,92.66 52.39,92.5 C52.15,92.34 52.17,92.25 52.27,92.39 C51.8362124,91.8217104 51.4483222,91.2198117 51.11,90.59 C50.36,89.35 49.64,88.09 48.91,86.82 C47.91,85.02 46.91,83.22 45.86,81.4 C44.24,78.51 39.92,81 41.48,83.85 Z" id="Path" fill="#222721"></path>
                <path d="M26.38,105.64 C25.89,106.15 25.43,107.04 24.8,107.19 C24.018584,107.249274 23.2495708,106.968639 22.69,106.42 C22.1906262,105.762856 21.8485325,104.999987 21.69,104.19 C21.4497831,103.166104 20.6909443,102.342764 19.69,102.02 C18.8878135,101.800462 18.1103767,101.49887 17.37,101.12 C16.0235985,100.421835 15.3771485,98.8542992 15.84,97.41 C16.4395297,95.5453726 18.4007646,94.4832207 20.29,95 C20.6980677,95.0894675 21.0829515,95.2631761 21.42,95.51 C24.3045452,98.1227705 26.0912779,101.731971 26.42,105.61" id="Path" fill="#222721"></path>
                <path d="M71,102.24 C71.35,100.44 71.33,99.37 71.79,98.59 C72.2805722,97.9418983 72.9924669,97.4969641 73.79,97.34 C75.7362893,96.9796564 77.7408033,97.5243709 79.2370379,98.8201995 C80.7332724,100.116028 81.5586842,102.022199 81.48,104 C81.48,105.06 80.09,105.92 79.26,105.39 C78.91,105.18 78.42,105.03 78.26,104.72 C76.9,102.06 74.52,101.72 70.98,102.21" id="Path" fill="#222721"></path>
                <path d="M52,114.18 C51.56,114.67 51.25,115.25 50.76,115.5 C50.4026208,115.733614 49.9626225,115.80386 49.5502691,115.693136 C49.1379158,115.582411 48.7922878,115.301209 48.6,114.92 C47.363745,112.066862 45.5290248,109.512577 43.22,107.43 C42.48,106.75 42.79,105.43 43.58,104.6 C44.2758734,103.763925 45.4865709,103.579315 46.4,104.17 C47.126624,104.565729 47.7850018,105.075549 48.35,105.68 C50.4140102,108.069197 51.6888871,111.038088 52,114.18" id="Path" fill="#222721"></path>
                <path d="M32.07,118.59 C33.0371215,118.845978 33.9466536,119.283776 34.75,119.88 C36.6353314,121.818027 37.5937689,124.474684 37.38,127.17 C37.2939927,127.754318 36.9174537,128.255115 36.38,128.5 C35.69,128.59 34.52,128.44 34.27,127.99 C33.16,125.99 32.4,123.94 29.86,123.25 C28.78,122.95 28.5,121.77 28.74,120.68 C28.98,119.59 30.17,118.68 32.09,118.59" id="Path" fill="#222721"></path>
                <path d="M65.14,138.81 C64.83,139.09 64.46,139.67 63.95,139.81 C63.44,139.95 62.53,139.91 62.28,139.57 C60.924596,137.529573 58.9925838,135.938709 56.73,135 C55.38,134.5 55.6,131.92 57.01,131.45 C58.1506789,131.02492 59.3883639,130.931314 60.58,131.18 C63.19,131.95 65.39,135.78 65.14,138.81" id="Path" fill="#222721"></path>
                <path d="M15.5,118.92 C16.38,119.44 17.33,119.68 17.72,120.28 C19.06,122.36 20.24,124.55 21.42,126.74 C21.584577,127.123071 21.584577,127.556929 21.42,127.94 C21.2287867,128.507301 20.8517959,128.993513 20.35,129.32 C19.7870131,129.526712 19.1591851,129.452413 18.66,129.12 C16.7835763,127.210894 15.0046493,125.208349 13.33,123.12 C12.8919889,122.427647 12.8210038,121.564618 13.14,120.81 C13.62,120.03 14.64,119.59 15.53,118.92" id="Path" fill="#222721"></path>
                <path d="M83,133 C82.165647,131.979834 81.2419896,131.036097 80.24,130.18 C79.1852378,129.596837 78.0637423,129.143538 76.9,128.83 C77.33,126.57 78.12,125.03 80.36,124.9 C82.42,124.78 84.43,126.44 85.16,128.9 C85.66,130.63 85.33,132.14 83,132.99" id="Path" fill="#222721"></path>
                <path d="M36.29,150.63 C35.64,151.14 34.96,152.01 34.11,152.24 C33.3192882,152.256564 32.5711763,151.882508 32.11,151.24 C31.0302637,149.233008 30.1042756,147.147028 29.34,145 C29.20113,144.22352 29.4645485,143.429501 30.04,142.89 C30.7656869,142.535499 31.6143131,142.535499 32.34,142.89 C35.17,144.51 36,147.27 36.29,150.67" id="Path" fill="#222721"></path>
                <path d="M59.73,162.07 C59.4506729,163.109409 58.3988727,163.741373 57.35,163.5 C55.3793509,162.741259 53.8502427,161.142479 53.18,159.14 C53.0169888,158.346942 53.2312517,157.523138 53.76,156.91 C54.3803025,156.394775 55.1960632,156.178946 55.99,156.32 C58.4502132,157.097103 60.0170374,159.50599 59.73,162.07" id="Path" fill="#222721"></path>
                <path d="M163.19,45.64 C163.19,45.64 143.29,51.08 138.52,66 C135.68,74.85 134.89,87 136.6,99.89 C137.77,108.68 138.6,113.45 142.6,121.17 C143.95,123.82 150.41,132.03 152.54,134.09 C158.04,139.4 160.81,144.98 165.61,148.81 C170.41,152.64 174.98,156.67 178.41,156.43 C186.49,155.87 204.98,146.54 216.63,129.62 C223.11,120.19 229.86,91.07 229.35,80.44 C228.43,62 215,48.67 215,48.67 C215,48.67 179.78,39.88 163.19,45.64 Z" id="Path" stroke="#222721" stroke-width="5" fill="#BF3C37" stroke-linecap="round" stroke-linejoin="round"></path>
                <path d="M179.64,55.24 C179.64,55.24 182.38,61.51 184.04,65.01 C185.7,68.51 186.91,69.96 189.34,65.52 C191.77,61.08 195.72,54.77 195.72,54.77 C197.847155,57.2096517 200.377208,59.2661649 203.2,60.85 C217.2,68.21 204.08,51.85 204.08,51.85 C204.08,51.85 217.87,45.85 210.77,43.16 C205.497135,41.3389762 200.057448,40.0426959 194.53,39.29 L192.1,27.36 L186.26,24.61 L185.33,37.74 C185.33,37.74 182.23,42.12 171.11,39.74 C159.99,37.36 155,43.37 155,43.37 L169.54,49.58 C169.54,49.58 153.17,60.04 160.54,60.08 C165.31,60.1 172.48,58.09 179.64,55.24 Z" id="Path" stroke="#222721" stroke-width="5" fill="#E2E679" stroke-linecap="round" stroke-linejoin="round"></path>
                <path d="M164.37,87.27 C163.88,87.71 163.37,88.49 162.8,88.57 C162.085655,88.5582465 161.412677,88.23273 160.96,87.68 C160.547368,87.0279891 160.293876,86.2880662 160.22,85.52 C160.099086,84.5513441 159.475487,83.7186108 158.58,83.33 C157.882226,83.062894 157.212349,82.7279555 156.58,82.33 C155.413658,81.5454296 154.968836,80.0431058 155.52,78.75 C156.220862,77.0703964 158.13742,76.2610846 159.83,76.93 C160.200171,77.0513979 160.540815,77.2489718 160.83,77.51 C163.209409,80.2138501 164.493281,83.7088355 164.43,87.31" id="Path" fill="#222721"></path>
                <path d="M199.81,81.5 C200.29,79.85 200.36,78.86 200.81,78.17 C201.308176,77.6049139 202.000715,77.2479347 202.75,77.17 C206.48,76.72 209.63,80.17 209.13,84.05 C209,85.05 207.69,85.71 206.98,85.15 C206.69,84.92 206.26,84.74 206.14,84.43 C205.14,81.85 203.02,81.34 199.77,81.43" id="Path" fill="#222721"></path>
                <path d="M181.56,90.93 C181.11,91.34 180.78,91.85 180.31,92.05 C179.964624,92.2292334 179.559018,92.2519453 179.195792,92.11239 C178.832566,91.9728347 178.546513,91.6843802 178.41,91.32 C177.551246,88.5698797 176.112163,86.0361384 174.19,83.89 C173.59,83.2 173.98,82.03 174.78,81.3 C175.475971,80.5906711 176.596796,80.5257585 177.37,81.15 C177.995578,81.5806206 178.546231,82.1110045 179,82.72 C180.66051,85.1364833 181.552773,87.9979983 181.56,90.93" id="Path" fill="#222721"></path>
                <path d="M186.25,115.67 C185.95,115.91 185.55,116.41 185.08,116.51 C184.551242,116.627181 183.997979,116.494398 183.58,116.15 C182.563432,114.143759 180.967876,112.48898 179,111.4 C177.82,110.82 178.24,108.4 179.57,108.14 C180.632975,107.819099 181.767025,107.819099 182.83,108.14 C185.12,109.14 186.77,112.83 186.28,115.62" id="Path" fill="#222721"></path>
                <path d="M152.29,94.2 C153.04,94.75 153.87,95.06 154.17,95.66 C155.17,97.66 156.08,99.84 156.96,101.97 C157.063116,102.347169 157.012784,102.749818 156.82,103.09 C156.55,103.55 156.18,104.09 155.73,104.27 C155.203034,104.415332 154.638297,104.291912 154.22,103.94 C152.7,101.94 151.22,100 149.91,97.94 C149.569096,97.2568334 149.569096,96.4531666 149.91,95.77 C150.597594,95.1284059 151.388752,94.6077295 152.25,94.23" id="Path" fill="#222721"></path>
                <path d="M208,111.1 C207.339478,110.082658 206.586269,109.128594 205.75,108.25 C204.849468,107.615459 203.87579,107.091688 202.85,106.69 C203.43,104.69 204.28,103.28 206.33,103.35 C208.21,103.42 209.88,105.13 210.33,107.49 C210.63,109.14 210.2,110.49 208.01,111.1" id="Path" fill="#222721"></path>
                <path d="M168,124.23 C167.381019,124.799803 166.65776,125.244624 165.87,125.54 C165.135561,125.483082 164.482023,125.052427 164.14,124.4 C163.33974,122.45296 162.691143,120.446988 162.2,118.4 C162.145138,117.670504 162.451564,116.960493 163.02,116.5 C163.710494,116.234191 164.486192,116.312132 165.11,116.71 C167.53,118.46 168.03,121.09 168,124.27" id="Path" fill="#222721"></path>
                <path d="M179.33,141.57 C179.00361,142.508723 177.981367,143.008685 177.04,142.69 C175.310026,141.797737 174.067412,140.181239 173.65,138.28 C173.583113,137.537856 173.850766,136.804559 174.38,136.28 C174.978945,135.859582 175.733967,135.727636 176.44,135.92 C178.620062,136.891819 179.824542,139.254935 179.33,141.59" id="Path" fill="#222721"></path>
                <path d="M214.92,73.26 C214.65444,72.6197792 214.65444,71.9002208 214.92,71.26 L243,5.23 C243,5.23 245.55,-0.37 250.49,0.02 C254.34,0.33 271.69,3.58 279.21,5.02 C280.021121,5.18763676 280.705882,5.72757725 281.05808,6.47722749 C281.410278,7.22687774 281.388758,8.09864082 281,8.83 L279.13,12.35 C278.568497,13.411967 277.356725,13.9560277 276.19,13.67 L255.19,8.56 C254.998805,8.51734444 254.813936,8.45011923 254.64,8.36 C253.77,7.95 250.64,6.84 248.4,10.48 C246.22,13.96 228.4,61.07 221.84,78.62 C221.45318,79.6429657 220.473658,80.319785 219.38,80.319785 C218.286342,80.319785 217.30682,79.6429657 216.92,78.62 L214.92,73.26 Z" id="Path" stroke="#000000" stroke-width="4" fill="#F9F8FA" stroke-linecap="round" stroke-linejoin="round"></path>
            </g>
        </g>
    </g>
</svg>