<?xml version="1.0" encoding="UTF-8"?>
<svg width="247px" height="152px" viewBox="0 0 247 152" version="1.1" xmlns="http://www.w3.org/2000/svg" xmlns:xlink="http://www.w3.org/1999/xlink">
    <title>Helping Human</title>
    <g id="Page-1" stroke="none" stroke-width="1" fill="none" fill-rule="evenodd">
        <g id="Homepage_Hover---ALL" transform="translate(-891.000000, -2935.000000)" fill-rule="nonzero">
            <g id="Helping-Human" transform="translate(891.000000, 2935.000000)">
                <path d="M159.85,149.24 C136.01,148.74 112.13,148.57 88.29,148.89 L121.11,101.48 C134.19,117 146.16,133.94 159.85,149.24 Z" id="Path" fill="#FFFFFF"></path>
                <path d="M159.85,146.74 C141.303333,146.346667 122.75,146.183333 104.19,146.25 C98.89,146.25 93.59,146.296667 88.29,146.39 L90.45,150.16 L123.27,102.74 L119.34,103.24 C129.62,115.45 139.08,128.32 149.21,140.64 C152.1,144.15 155.05,147.64 158.08,151.01 C160.23,153.42 163.75,149.87 161.62,147.47 C150.96,135.54 141.39,122.7 131.43,110.19 C128.63,106.656667 125.78,103.163333 122.88,99.71 C121.77,98.39 119.79,99 118.95,100.21 L86.13,147.63 C85.69187,148.404954 85.6951301,149.353574 86.1385763,150.125499 C86.5820224,150.897423 87.399848,151.378101 88.29,151.39 C106.843333,151.143333 125.396667,151.166667 143.95,151.46 C149.283333,151.54 154.583333,151.633333 159.85,151.74 C163.07,151.81 163.07,146.81 159.85,146.74 Z" id="Path" fill="#222721"></path>
                <path d="M5.37,78.18 L244.04,77.18 C243.74,84.44 243.36,92.02 243.04,99.28 C162.933333,100.813333 82.8233333,100.896667 2.71,99.53 C1.63,92.89 4.05,84.78 5.37,78.18 Z" id="Path" fill="#FAFBFC"></path>
                <path d="M5.37,80.68 L98.74,80.28 L191.61,79.88 L244,79.65 L241.5,77.15 C241.2,84.52 240.83,91.88 240.5,99.25 L243,96.75 C211.666667,97.35 180.356667,97.7333333 149.07,97.9 C117.783333,98.0666667 86.5566667,98.0033333 55.39,97.71 C37.8566667,97.55 20.3066667,97.3133333 2.74,97 L5.15,98.83 C4.15,92.19 6.48,85.28 7.78,78.83 C8.10115617,77.4980114 7.31661172,76.1493001 6,75.77 C4.69429746,75.4664361 3.37846118,76.2340073 3,77.52 C1.46,85 -0.87,92.5 0.33,100.16 C0.633212476,101.24208 1.61626478,101.992626 2.74,102 C34.0733333,102.56 65.3866667,102.893333 96.68,103 C127.973333,103.106667 159.2,102.97 190.36,102.59 C207.926667,102.376667 225.496667,102.106667 243.07,101.78 C244.437371,101.748311 245.538311,100.647371 245.57,99.28 C245.87,91.91 246.24,84.55 246.57,77.18 C246.548563,75.8082658 245.441734,74.7014373 244.07,74.68 L150.7,75.09 L57.83,75.49 L5.4,75.71 C2.16,75.69 2.15,80.69 5.37,80.68 Z" id="Path" fill="#222721"></path>
                <path d="M16.91,26.63 C12.3039897,32.7675432 10.3908834,40.5138187 11.61,48.09 C12.49,52.75 14.69,56.95 16.86,61.09 C17.8807846,63.2222426 19.1351342,65.2345681 20.6,67.09 C22.4197514,69.0702349 24.5894441,70.6975044 27,71.89 C36.44,77 47.73,78.3 57.7,74.48 C68.2222357,70.275095 76.0509674,61.227318 78.7,50.21 C81.34,38.95 77.7,26.01 69.31,19.08 C54.64,7.06 28.4,11.05 16.91,26.63 Z" id="Path" fill="#DF7C3A"></path>
                <path d="M14.75,25.37 C9.84519709,32.0303549 7.83349564,40.3872079 9.17,48.55 C9.93,52.86 11.86,56.88 13.87,60.73 C15.88,64.58 17.87,68.41 21.31,71.15 C27.73,76.24 36.31,78.94 44.46,79.15 C52.2532754,79.4177324 59.9200766,77.127877 66.29,72.63 C78.5703032,63.9254243 84.3802182,48.6679791 81,34 C79.406394,26.9544065 75.4114124,20.682639 69.7,16.26 C64.6384958,12.6187362 58.6979407,10.3923224 52.49,9.81 C40.1,8.4 26.49,12.69 17.79,21.73 C16.7123743,22.8772144 15.710272,24.0930985 14.79,25.37 C14.1036978,26.5618623 14.4997761,28.0838711 15.68,28.79 C16.880337,29.4531719 18.3899029,29.0570759 19.11,27.89 C25.6,19.18 36.98,14.68 47.58,14.56 C52.8823784,14.4204724 58.1404503,15.5592069 62.91,17.88 C68.1200623,20.5307748 72.2304017,24.9314225 74.52,30.31 C79.69,42.14 76.58,56.08 67.52,65.09 C62.9113635,69.7157379 56.9636712,72.7735515 50.52,73.83 C43.3630113,74.8675779 36.0600457,73.6806714 29.6,70.43 C26.3,68.79 23.24,66.81 21.21,63.66 C19.1222771,60.3711846 17.322266,56.9083379 15.83,53.31 C12.9390144,46.6075805 13.1216651,38.9764329 16.33,32.42 C17.1107362,30.8315573 18.0310188,29.3156008 19.08,27.89 C19.7758788,26.6970649 19.3729351,25.1658788 18.18,24.47 C16.9870649,23.7741212 15.4558788,24.1770649 14.76,25.37 L14.75,25.37 Z" id="Path" fill="#222721"></path>
                <path d="M52.35,20.39 C48.9839114,23.3408324 45.8574213,26.5542623 43,30 C42.5470262,30.4799882 42.2870914,31.1102411 42.27,31.77 C42.2722155,32.7781608 42.8797652,33.6863354 43.8107648,34.0731592 C44.7417645,34.459983 45.8140049,34.2497493 46.53,33.54 C49.3787992,30.0930295 52.4987481,26.8794487 55.86,23.93 C56.8229853,22.9464705 56.8229853,21.3735295 55.86,20.39 C54.8680911,19.4477738 53.3119089,19.4477738 52.32,20.39 L52.35,20.39 Z" id="Path" fill="#222721"></path>
                <path d="M40.72,22.39 C44.207369,27.0920195 48.6087483,31.041016 53.66,34 C54.8529351,34.6986402 56.3863598,34.2979351 57.085,33.105 C57.7836402,31.9120649 57.3829351,30.3786402 56.19,29.68 C55.03,29 53.91,28.28 52.83,27.5 C52.58,27.32 52.33,27.14 52.09,26.95 C51.54,26.54 52.48,27.27 51.94,26.84 L51.63,26.59 C51.1,26.17 50.58,25.73 50.07,25.28 C49.07,24.43 48.2,23.53 47.33,22.59 C46.88,22.1 46.43,21.59 46,21.08 C45.81,20.85 45.62,20.62 45.44,20.38 L45.44,20.33 C45.32,20.17 45.2,20.02 45.08,19.85 C44.3453583,18.6789181 42.8136539,18.3026323 41.62,19 C40.4407769,19.7062409 40.0411575,21.2247944 40.72,22.42 L40.72,22.39 Z" id="Path" fill="#222721"></path>
                <path d="M200.31,22.54 C194.31,18.76 186.31,19.09 180.15,22.54 C173.99,25.99 169.75,32.31 167.8,39.1 C165.85,45.89 166.04,53.1 167.34,60.1 C168.5,66.29 171.16,73 177,75.36 C178.928198,76.0482387 180.953361,76.426269 183,76.48 C189.11,76.91 195.79,76.48 200.5,72.58 C206.5,76.58 214.3,78.87 221.1,76.42 C226.22,74.58 230.19,70.26 232.44,65.31 C234.536143,60.274588 235.495609,54.8387489 235.25,49.39 C235.12,40.71 232.88,31.58 226.69,25.49 C220.5,19.4 206.85,16.82 200.31,22.54 Z" id="Path" fill="#7DA75B"></path>
                <path d="M201.58,20.38 C194.94,16.29 186.39,16.52 179.58,20.05 C172.77,23.58 168.23,30.05 165.85,37.05 C163.12,45.05 163.39,54.05 165.22,62.21 C166.71,68.89 170.17,75.9 177.13,78.12 C179.342076,78.7384792 181.62354,79.0744827 183.92,79.12 C185.969085,79.2484132 188.024948,79.2216702 190.07,79.04 C194.485434,78.7464748 198.712661,77.1412426 202.21,74.43 L199.21,74.82 C206.21,79.49 215.38,81.82 223.39,78.24 C231,74.77 235.52,66.79 237,58.86 C238.55494,50.5960008 237.864265,42.0661688 235,34.16 C233.604987,30.3770731 231.450824,26.9195228 228.67,24 C226.274065,21.6716234 223.410883,19.8787263 220.27,18.74 C213.37,16.07 204.46,15.74 198.55,20.74 C197.899282,21.36678 197.637375,22.2958895 197.864935,23.1702481 C198.092495,24.0446068 198.774112,24.7281549 199.647824,24.9581876 C200.521535,25.1882203 201.451382,24.9289421 202.08,24.28 C205.84,21.08 212.08,21.41 216.88,22.82 C219.418582,23.53072 221.795622,24.7260316 223.88,26.34 C226.302651,28.4454598 228.228796,31.0614647 229.52,34 C232.52,40.24 233.1,47.63 232.52,54.43 C231.94,61.23 229.36,68.51 223.45,72.43 C216.59,76.99 208.09,74.7 201.68,70.43 C200.701921,69.8920361 199.488023,70.0498428 198.68,70.82 C196.286841,72.6018886 193.443112,73.6791114 190.47,73.93 C187.180452,74.3135921 183.854421,74.2564207 180.58,73.76 C177.945296,73.3990329 175.551969,72.0339771 173.9,69.95 C172.209943,67.6451255 171.011806,65.0173931 170.38,62.23 C167.19,50.09 168.31,33.88 179.48,25.99 C185.19,21.99 192.95,20.94 199.06,24.71 C201.8,26.39 204.31,22.07 201.58,20.38 Z" id="Path" fill="#222721"></path>
                <path d="M201.63,19.51 C201.516787,18.627981 201.493333,17.7367527 201.56,16.85 C201.56,16.72 201.64,16.07 201.56,16.63 C201.56,16.41 201.62,16.2 201.67,15.98 C201.759664,15.5812608 201.86981,15.1874056 202,14.8 C202.12,14.3666667 202.26,13.9466667 202.42,13.54 C202.49,13.35 202.61,13.09 202.42,13.41 C202.51,13.21 202.61,13.01 202.71,12.81 C203.109601,12.0129328 203.574523,11.2503267 204.1,10.53 C204.4,10.1 203.87,10.77 204.25,10.33 C204.4,10.17 204.54,9.99 204.69,9.83 C204.96,9.52 205.25,9.23 205.54,8.95 C205.83,8.67 206.14,8.4 206.46,8.14 C206.78,7.88 206.22,8.29 206.66,8 C206.84,7.87 207.02,7.74 207.21,7.62 C207.58,7.38 207.96,7.16 208.35,6.95 L208.95,6.66 C209.59,6.35 208.49,6.82 209.16,6.57 C209.993147,6.25760273 210.853509,6.02326295 211.73,5.87 C213.053311,5.49562004 213.832093,4.12941477 213.48,2.8 C213.079295,1.49264318 211.728196,0.724972836 210.4,1.05 C202.09,2.46 195.59,11.13 196.63,19.51 C196.666705,20.8752192 197.764781,21.9732949 199.13,22.01 C200.35,21.95 201.8,20.9 201.63,19.51 L201.63,19.51 Z" id="Path" fill="#222721"></path>
            </g>
        </g>
    </g>
</svg>