<?xml version="1.0" encoding="UTF-8"?>
<svg width="304px" height="218px" viewBox="0 0 304 218" version="1.1" xmlns="http://www.w3.org/2000/svg" xmlns:xlink="http://www.w3.org/1999/xlink">
    <title>Plastic</title>
    <g id="Page-1" stroke="none" stroke-width="1" fill="none" fill-rule="evenodd">
        <g id="Homepage_Hover---ALL" transform="translate(-247.000000, -2561.000000)">
            <g id="Plastic" transform="translate(247.000000, 2561.000000)">
                <path d="M124.484049,2.54792199 C127.89894,2.76339211 136.930322,4.22380069 137.950772,7.67930296 C138.368594,9.10779004 137.147268,13.7044859 136.705341,15.132973 C130.735308,36.4804755 128.847075,56.8224507 136.215204,77.4756606 C138.529295,83.979666 141.590644,90.2442602 143.687789,96.8041282 C145.438078,102.657666 146.730211,108.636813 147.552642,114.688148 C150.780111,135.590914 152.255585,156.723634 151.963877,177.868775 C151.819247,188.299125 149.963153,210.388802 142.92446,212.296112 C133.949323,214.730126 126.340143,214.514656 117.05164,214.833871 C110.553973,215.067962 104.056306,215.054661 97.5586389,214.793969 C88.3022758,214.426872 77.1175037,216.677337 72.1438155,208.920413 C69.227097,204.3716 69.5726036,194.819091 69.3877977,189.424358 L68.2548574,155.83496 C67.949526,146.753294 67.6522296,137.607784 69.0583612,128.621882 C71.1796111,114.919579 77.181784,102.222803 82.2197525,89.3344975 C87.257721,76.4461922 91.5805711,62.7518692 90.1021242,48.9937031 C88.7442029,36.3767306 85.329312,27.7419651 83.1518168,17.1520078 C82.7741701,15.3165216 80.8859363,9.33124053 82.5893642,6.36254112 C85.4498375,1.4067284 98.9647705,2.02919763 103.834003,2.02121725 C112.768965,2.0052565 115.565158,1.98131538 124.484049,2.54792199 Z" id="Path" fill="#DF7C3A" fill-rule="nonzero"></path>
                <path d="M124.44188,4.55120736 C125.72962,4.63109191 127.010021,4.80178929 128.27341,5.06201011 C129.877606,5.34432198 131.454922,5.76083119 132.988521,6.30709179 C133.565219,6.52424394 134.121604,6.79131355 134.65126,7.10522107 C134.836009,7.20897788 135.012725,7.32071598 135.189441,7.44043537 C135.229604,7.44043537 135.502711,7.66391157 135.269767,7.48034184 C135.366158,7.56015476 135.470581,7.64794899 135.558939,7.73574321 C135.647297,7.82353743 136.008762,8.23058336 135.872209,8.06297621 C135.919475,8.11712706 135.950138,8.18360023 135.960567,8.25452724 C136.06499,8.55781637 135.960567,8.25452724 135.960567,8.16673302 C135.972607,8.35809727 135.972607,8.55002185 135.960567,8.7413861 C135.922719,9.47297528 135.817862,10.1996164 135.647297,10.9122978 C134.787813,15.0466074 133.478507,19.0851416 132.54673,23.2034887 C131.394946,28.2318126 130.534052,33.3215759 129.968279,38.4477581 C128.794513,48.5730492 129.318377,58.8216473 131.518563,68.7766708 C132.711535,73.7864403 134.309857,78.6922675 136.297934,83.4462871 C138.217715,88.187175 140.314213,92.8801752 141.816301,97.8126142 C145.029324,107.980781 146.24224,118.803414 147.439091,129.346702 C148.676105,140.057597 149.449908,150.805738 149.7605,161.591125 C150.126081,170.047919 150.021499,178.518318 149.44723,186.963655 C148.925114,193.348689 148.170054,200.013069 145.776352,206.00702 C145.679961,206.238477 145.350626,206.988719 145.093584,207.475578 C144.796286,208.028291 144.46359,208.561473 144.097547,209.071836 C144.049352,209.135687 143.856571,209.367144 144.097547,209.071836 L143.888701,209.319256 L143.342487,209.869966 C142.956924,210.261049 143.495105,209.869966 143.125608,210.053535 C142.908729,210.189217 142.69185,210.316918 142.466938,210.436637 C143.03725,210.149311 142.017115,210.540394 141.920724,210.564338 C141.398608,210.708001 140.884524,210.835702 140.362408,210.955421 C139.037036,211.266692 137.703632,211.530075 136.34613,211.753551 C134.008655,212.128672 131.647084,212.352148 129.285512,212.495811 C124.273196,212.807081 119.236783,212.886894 114.216435,213.014595 C108.775716,213.142296 103.340352,213.10505 97.9103434,212.902857 C93.9743904,212.759194 90.0304048,213.014595 86.0944518,212.902857 C82.7288103,212.7991 79.1462898,212.447923 76.2706343,210.508469 C73.3949789,208.569015 72.5194301,205.496217 72.0053465,202.327644 C71.5314442,198.622337 71.319401,194.888592 71.3707744,191.153834 C71.1699605,180.522752 70.671942,169.883689 70.3185095,159.228663 C69.9650769,148.573637 69.3706677,138.086218 71.2181559,127.630724 C74.8006764,107.414109 86.2069076,89.6397703 90.6087489,69.6546131 C91.7754581,64.5721825 92.3655138,59.3758869 92.3678789,54.1629237 C92.2413191,49.0773096 91.6253609,44.0153913 90.5284234,39.046355 C89.6528746,34.7604008 88.5122515,30.5382968 87.395726,26.2762865 C86.4157541,22.557004 85.5964332,18.7978151 84.6887543,15.0545887 C84.2493333,13.4182116 83.98017,11.7413284 83.8854986,10.0503181 C83.8410176,9.35066173 83.9033051,8.64834485 84.0702474,7.9672007 C84.128165,7.68283477 84.2399245,7.41199012 84.3995822,7.16907142 C84.3995822,7.10522107 84.6164613,6.85780099 84.3995822,7.16907142 C84.5090562,7.0315031 84.6270984,6.90088605 84.7530147,6.77798807 L85.0180891,6.53056799 C85.4518472,6.13948464 84.7048194,6.72211902 85.1948054,6.38690472 C85.4116844,6.24324145 85.636596,6.10755947 85.8615076,5.97985878 C86.407861,5.67813388 86.9909839,5.44744629 87.59654,5.2934676 C89.033869,4.850895 90.5105778,4.54621301 92.0064139,4.38360021 C95.1359096,4.05913659 98.2828905,3.93118174 101.428603,4.00049816 C105.051287,4.00049816 108.657905,4.00049816 112.304686,4.00049816 C116.320964,4.04838592 120.401504,4.25589953 124.44188,4.5113009 C127.020331,4.67092676 127.012298,0.680280337 124.44188,0.52065448 C116.513746,0.0657207887 108.625775,0.00985173878 100.697641,0.00985173878 C97.2846827,-0.0477110068 93.8721425,0.147037663 90.4882606,0.592486116 C87.4921167,1.02347593 84.0622148,1.80564263 81.8853918,4.00847945 C79.1382573,6.74606289 79.7246339,11.0479797 80.4395315,14.4799357 C81.2427872,18.2071994 82.1022709,21.9264819 83.0581452,25.6058579 C85.4679123,34.8322324 88.1989818,44.1623637 88.3516004,53.7718403 C88.6809352,75.0579483 77.0417598,94.0215001 70.6799745,113.719331 C69.023004,118.677639 67.7922889,123.766661 67.0010633,128.931675 C66.258281,134.430735 65.9280358,139.97706 66.0130588,145.524783 C66.0853518,156.762443 66.6717285,168.016066 67.0492587,179.245745 C67.2099098,184.034521 67.3866261,188.823296 67.4830168,193.612072 C67.5633423,197.650606 67.6838307,201.800879 68.7039655,205.735656 C69.5491597,209.420065 71.9128248,212.582395 75.2183693,214.451228 C78.6322061,216.310869 82.6404522,216.733877 86.4639494,216.845616 C90.5846513,216.941391 94.7053531,216.725896 98.8260549,216.845616 C104.40065,217.037167 109.977922,217.050469 115.557872,216.885522 C120.706741,216.733877 125.879708,216.701952 131.020544,216.294906 C133.565754,216.098184 136.09927,215.773193 138.611311,215.321189 C140.611417,214.954049 142.916761,214.674704 144.732119,213.72493 C146.925007,212.559661 148.290542,210.237105 149.254449,208.050231 C150.522549,205.004493 151.441374,201.826531 151.993551,198.576436 C153.213519,191.876997 153.866439,185.087776 153.945462,178.280009 C154.326146,156.007221 152.713286,133.744901 149.125928,111.755933 C148.298089,106.389955 147.062906,101.093889 145.430952,95.9130665 C143.82444,90.8529268 141.599422,86.0003008 139.631445,81.0598805 C135.706868,71.3821186 133.589198,61.0750035 133.382116,50.6431735 C133.229497,40.1717173 134.924367,29.7880553 137.518883,19.667776 C138.024934,17.6884154 138.603278,15.7329986 139.125394,13.753638 C139.635048,12.0455852 139.931794,10.2818364 140.008976,8.50194732 C140.008976,4.99017847 136.506781,3.27420051 133.58293,2.29250149 C130.623925,1.32556027 127.551361,0.743406462 124.44188,0.560560945 C123.338249,0.573488657 122.446751,1.45929705 122.433741,2.55588415 C122.455108,3.64895594 123.341787,4.5299767 124.44188,4.55120736 Z" id="Path" fill="#202622" fill-rule="nonzero"></path>
                <path d="M101,32 C95.892936,31.8347107 92.0838852,31.5041322 87,31" id="Path" fill="#F9F8FA" fill-rule="nonzero"></path>
                <path d="M101.053633,29.9742351 C96.3823529,29.821256 91.6410035,29.4428341 86.9463668,29 C85.8731906,29.004413 85.0042672,29.9030312 85,31.0128824 C85.0246715,32.113825 85.8818048,33.0002502 86.9463668,33.0257649 C91.6176471,33.468599 96.3434256,33.8309179 101.053633,34 C102.128582,34 103,33.0988018 103,31.9871176 C103,30.8754333 102.128582,29.9742351 101.053633,29.9742351 Z" id="Path" fill="#202622" fill-rule="nonzero"></path>
                <path d="M132,31 C127.010941,31.5133333 122.010941,31.8466667 117,32" id="Path" fill="#F9F8FA" fill-rule="nonzero"></path>
                <path d="M131.959622,29 C126.997423,29.4277778 122.024341,29.7055556 117.040378,29.8333333 C115.913508,29.8333333 115,30.7660734 115,31.9166667 C115,33.0672599 115.913508,34 117.040378,34 C122.0189,33.8555556 126.991982,33.5777778 131.959622,33.1666667 C133.075603,33.140259 133.974137,32.2228089 134,31.0833333 C133.995527,29.9346373 133.084634,29.0045674 131.959622,29 Z" id="Path" fill="#202622" fill-rule="nonzero"></path>
                <path d="M117.989167,4.33022261 C118.084226,19.1016438 117.553481,33.8891733 116.404854,48.6283776 C116.396014,50.0271131 116.070761,51.4050261 115.454267,52.6554826 C114.139287,54.8784446 111.034034,55.546944 108.68133,54.548222 C106.353724,53.3999925 104.622873,51.2911243 103.928391,48.757245 C103.252325,46.2480889 102.953207,43.6494364 103.041176,41.049366 C102.872183,28.6995774 103.223372,16.3497887 104.094744,4" id="Path" fill="#F9F8FA" fill-rule="nonzero"></path>
                <path d="M116.016648,4.32033529 C116.101219,18.902998 115.588507,33.4695474 114.478512,48.0199833 C114.383369,49.2687748 114.399227,50.8317784 113.606373,51.8710953 C113.014985,52.5499573 112.175006,52.9519753 111.283312,52.9829226 C108.841323,53.1521137 107.017759,51.1218204 106.113906,49.0029031 C104.84534,46.0541436 105.027697,42.6058676 104.995982,39.4556901 C104.958983,35.8677643 104.958983,32.2798384 104.995982,28.6919126 C105.117553,20.457945 105.466409,12.2320341 106.042549,4.01417994 C106.042549,2.90177908 105.155117,2 104.060415,2 C102.965713,2 102.078281,2.90177908 102.078281,4.01417994 C101.549712,11.8936519 101.206142,19.7892372 101.047571,27.700936 C100.984143,31.6165018 100.984143,35.5347532 101.047571,39.4556901 C101.047571,43.2101216 101.047571,47.1095739 102.522279,50.6223037 C103.735345,53.4663258 106.082192,56.1411568 109.18225,56.8098645 C112.147522,57.4544021 115.437865,56.4634256 117.110786,53.7885946 C117.935372,52.2498762 118.376371,50.5292834 118.395209,48.7773149 C118.543208,46.8651868 118.680636,44.9530586 118.807493,43.0409304 C119.077063,39.0555397 119.301705,35.0674635 119.481418,31.0767016 C119.877845,22.1659696 120.046987,13.2471808 119.988845,4.32033529 C119.988845,1.72607153 116.024577,1.71801481 116.024577,4.32033529 L116.016648,4.32033529 Z" id="Path" fill="#202622" fill-rule="nonzero"></path>
                <path d="M144.504393,106.346806 C141.234583,98.9318345 128.554103,104.35937 124.81376,99.7778915 C119.653841,93.4484269 103.863053,93.4963169 96.4381932,99.3947714 C93.6548676,101.605694 91.150672,104.183774 87.2827266,105.389006 C83.7497373,106.530385 79.9615434,105.899833 76.2770263,105.596529 C76.2770263,105.596529 67.1614355,117.792522 65.0400469,175.124861 C64.4817867,190.130401 69.9447611,194.719862 69.9447611,194.719862 C76.6917339,195.81335 80.4320769,196.316196 86.9637208,196.890876 C90.7519147,197.226106 97.3792603,197.81675 101.135554,197.984365 C104.429289,198.128035 107.013236,197.234088 110.298995,197.242069 C112.779266,197.242069 118.425668,198.040237 120.905938,197.952438 C123.146954,197.888585 122.915675,197.952438 125.164666,197.86464 C132.868656,197.449593 140.660373,196.683353 148.667419,195.557937 C148.667419,195.557937 156.068353,132.582557 144.504393,106.346806 Z" id="Path" fill="#F9F8FA" fill-rule="nonzero"></path>
                <path d="M146.13129,105.355328 C144.25794,101.276436 139.801759,100.286646 135.768078,100.063145 C133.80704,99.9593768 131.846001,99.9992876 129.892934,99.8236797 L129.199396,99.743858 C129.550151,99.791751 128.976189,99.7039471 128.880528,99.6800006 C128.467468,99.6071958 128.059937,99.5058459 127.660858,99.3766778 C127.557226,99.3766778 127.039065,99.1212482 127.421707,99.3048382 C127.278216,99.2329987 127.126754,99.1611591 126.991235,99.0813373 C126.855716,99.0015155 126.489018,98.7460859 126.656424,98.8817829 C126.823829,99.0174799 126.457131,98.6822284 126.385386,98.618371 C125.062069,97.1413551 123.461177,95.9397863 121.67411,95.0822667 C119.5091,94.1333943 117.214368,93.514563 114.866277,93.246366 C110.082254,92.6287825 105.22004,93.1764319 100.692592,94.8428014 C98.4567389,95.6795557 96.3725498,96.8767081 94.5224955,98.3868879 C92.3860795,100.127002 90.3214089,102.018778 87.754521,103.112337 C84.685416,104.421414 81.3771599,104.102127 78.1007907,103.790822 C76.7137147,103.663107 75.3904122,103.351802 74.4816383,104.676843 C73.6288667,106.058621 72.9260228,107.527702 72.3850808,109.059058 C70.878558,113.027129 69.6870769,117.108043 68.8217303,121.263807 C67.1249999,129.168908 65.8767585,137.163887 65.0830024,145.210338 C64.4691814,150.933559 64.0068227,156.672744 63.6480962,162.427893 C63.4408319,165.764443 63.2681117,169.106315 63.1299356,172.453507 C62.9332496,175.61238 62.9598884,178.781224 63.2096526,181.936334 C63.4815225,185.9043 64.5669833,189.773619 66.3983331,193.302954 C66.8838598,194.171741 67.4582509,194.987645 68.1122489,195.737518 C68.909419,196.631521 69.9297968,196.775201 71.1096086,196.966773 C76.944894,197.892705 82.7881511,198.563208 88.6473516,199.090032 C91.3497583,199.329497 94.0521651,199.56098 96.7545718,199.760535 C99.4988295,200.057132 102.266266,200.070506 105.013254,199.800446 C107.679581,199.396529 110.381354,199.27879 113.072645,199.44923 C115.464155,199.648784 117.855665,199.968071 120.310949,200 C126.38929,199.971976 132.460797,199.588177 138.4944,198.850567 C142.049779,198.475404 145.605158,198.052349 149.144593,197.533507 C150.077282,197.39781 150.515726,196.400038 150.611386,195.609803 C151.504217,187.962877 152.038321,180.260076 152.436906,172.57324 C153.234076,157.590694 153.385538,142.416576 151.544075,127.505869 C150.619358,119.962712 149.240254,112.379644 146.171148,105.387257 C145.613737,104.438569 144.396393,104.117795 143.444827,104.668861 C142.518421,105.24325 142.206079,106.445063 142.735345,107.398766 L142.950581,107.893661 C142.775204,107.494552 143.006383,108.053304 143.022326,108.085233 L143.428883,109.122916 C143.691949,109.841312 143.947044,110.559708 144.178223,111.286086 C144.656525,112.765449 145.079025,114.255456 145.445724,115.756105 C146.266603,119.119501 146.905271,122.524879 147.358932,125.957327 C148.315258,133.415756 148.834308,140.923887 148.913414,148.443119 C149.092873,161.537922 148.589972,174.633184 147.406762,187.675519 C147.175583,190.317619 146.936432,192.967702 146.609592,195.609803 L148.068413,193.686098 C141.834543,194.553495 135.5741,195.210694 129.287085,195.657696 C124.858294,196.034159 120.406534,196.055513 115.974344,195.721553 C113.95068,195.471528 111.914831,195.332962 109.875992,195.30648 C107.05401,195.30648 104.295801,196.104698 101.465847,196.048822 C96.937921,195.961018 92.3781078,195.434195 87.8661248,195.027104 C82.0228678,194.508262 76.2354126,193.781884 70.4399857,192.847969 L71.3168728,193.358829 C71.0617784,193.135328 70.8704576,192.847969 70.6313065,192.608504 C70.3921555,192.369039 70.9182878,193.015595 70.7508821,192.760166 C70.6950801,192.672362 70.6233348,192.59254 70.5675329,192.504736 C70.511731,192.416932 70.2964951,192.113609 70.1689479,191.906073 C69.85936,191.411155 69.5772649,190.899519 69.3239475,190.373495 L69.1326267,189.958421 C69.1326267,189.862635 69.044938,189.766849 69.0050795,189.663081 C69.0050795,189.663081 69.1326267,189.982368 69.0050795,189.758867 C68.8536171,189.375723 68.7021548,188.960649 68.5666359,188.593469 C68.2525561,187.703773 67.9864491,186.79782 67.7694657,185.879529 C67.2472775,183.519234 66.9615388,181.112666 66.9164937,178.69557 C66.828805,175.367002 67.0520126,172.02247 67.2194184,168.693902 C67.3682234,165.53296 67.5542298,162.369357 67.7774374,159.203094 C68.1521074,153.807142 68.6224378,148.419173 69.2362588,143.047168 C70.0287884,135.674127 71.2451623,128.352967 72.8793263,121.120128 C73.7282102,117.259011 74.8742425,113.469466 76.3071579,109.785437 C76.4347051,109.466149 76.5144221,109.338435 76.3071579,109.785437 C76.3709315,109.64974 76.4187617,109.514043 76.4825353,109.378346 C76.5463089,109.242649 76.6818279,108.923361 76.7934317,108.691878 C76.9608374,108.340663 77.1282431,107.989447 77.3115923,107.646213 C77.4949414,107.30298 77.718149,107.015621 77.8855548,106.688352 C77.8855548,106.688352 77.8855548,106.688352 77.8855548,106.648441 L76.1636673,107.638231 C79.8226782,107.949536 83.5534344,108.500306 87.1646151,107.518498 C90.3532957,106.656423 92.9839571,104.756665 95.4870713,102.729192 C97.2172752,101.144395 99.1866421,99.8432278 101.322357,98.8738007 C103.533832,97.9972148 105.858017,97.4382475 108.22585,97.2135079 C112.705946,96.7824703 117.648401,97.1656148 121.363214,99.5522857 C121.682307,99.7425158 121.98143,99.9644787 122.256044,100.214806 C122.611524,100.545414 122.949456,100.894447 123.268451,101.260472 C123.885663,101.940541 124.637725,102.48426 125.476612,102.856907 C127.415268,103.609501 129.479915,103.983414 131.55902,103.958447 C132.746803,104.00634 133.95053,104.014323 135.130342,104.070198 C136.199586,104.09278 137.26556,104.196849 138.319023,104.381503 C139.250005,104.520857 140.144142,104.843712 140.949684,105.331382 C141.332024,105.538429 141.664084,105.82732 141.922232,106.177493 C142.073694,106.337136 141.922232,106.177493 141.922232,106.177493 C142.024317,106.309507 142.117526,106.448171 142.201241,106.592566 C142.364354,106.850358 142.513378,107.116823 142.647656,107.390783 C143.207883,108.335742 144.421795,108.655613 145.373978,108.109179 C146.335251,107.55245 146.67244,106.326312 146.13129,105.355328 L146.13129,105.355328 Z" id="Path" fill="#202622" fill-rule="nonzero"></path>
                <path d="M176.483997,68.1362135 C175.42058,69.176409 176.483997,70.7287006 176.37121,72.1769728 C176.059585,75.9951402 175.263784,79.758945 174.002691,83.3790777 C172.576746,87.2678084 170.997734,92.3887706 169.491227,97.1976742 C166.518494,106.727465 166.663505,122.802485 166.478213,127.075288 C166.333201,130.403914 166.190876,133.737874 166.051235,137.077168 C165.753156,144.214509 166.856854,153.192196 166.768236,160.34554 C166.768236,163.490131 166.42182,168.106998 166.292921,171.251589 C166.18819,173.708051 166.445988,176.052491 166.429876,178.452942 C166.429876,181.733559 166.607112,186.598473 166.470157,189.871088 C166.341258,192.839646 166.365426,198.120638 166.590999,201.073193 C166.929359,205.458017 166.921303,210.114892 171.11052,212.92342 C171.916139,213.451519 174.405501,215.323871 177.434627,215.547913 C179.449162,215.76237 181.477779,215.815885 183.500936,215.707943 C184.82215,215.603923 191.831033,215.931985 193.16836,215.987995 C196.012194,216.100016 200.418928,215.387883 203.278874,215.515907 C207.476148,215.69194 210.787241,215.259859 214.235289,215.403886 C218.658135,215.571917 221.888666,212.627364 223.024588,208.202532 C223.584822,206.042132 223.88766,203.823857 223.926881,201.593291 C224.079949,198.048624 225.231984,172.939906 224.958073,168.787126 C224.684163,164.786374 224.337747,119.04978 223.797982,116.097226 C222.992364,111.528367 222.597611,103.29482 219.47181,94.365142 C217.143572,87.7078911 216.507133,85.8275378 215.572616,79.0022553 C215.177862,76.105711 215.66929,69.8725398 215.210087,67" id="Path" fill="#ACD58C" fill-rule="nonzero"></path>
                <path d="M175.885852,67.4987421 C175.210224,68.2303302 174.854066,69.2009554 174.896198,70.1958115 C174.896198,71.0655765 175.287271,71.9034235 175.255347,72.7731884 C175.1533,74.4714045 174.910373,76.1582148 174.529069,77.8162294 C173.660067,81.3729248 172.594285,84.8786552 171.336639,88.317245 C170.107553,92.0676077 168.774713,95.8419089 167.864871,99.680046 C167.131352,102.943564 166.611479,106.251434 166.308561,109.5826 C165.757867,115.168246 165.646132,120.753893 165.510454,126.395396 C165.414681,130.145758 165.183229,133.896121 165.047551,137.646484 C164.895911,141.692088 165.135343,145.753651 165.366794,149.791276 C165.582283,153.701228 165.837678,157.611181 165.741905,161.529113 C165.654113,165.255537 165.271021,168.989941 165.271021,172.700406 C165.271021,176.690154 165.438624,180.679901 165.494491,184.621772 C165.542378,188.076893 165.382756,191.524035 165.390737,194.995116 C165.37999,198.288531 165.537155,201.580354 165.861621,204.857772 C166.244712,208.344811 167.218404,211.775994 170.075629,214.05015 C171.128335,214.905684 172.271035,215.644145 173.483548,216.252491 C175.201171,217.062523 177.061622,217.526188 178.958566,217.616984 C181.767904,217.824451 184.545319,217.656882 187.3786,217.736677 C189.701093,217.808492 192.031567,217.992021 194.35406,218 C196.125859,218 197.897658,217.808492 199.661475,217.672841 C201.425293,217.537189 203.244978,217.52921 205.056683,217.553148 C207.059932,217.553148 209.04722,217.481333 211.058451,217.417497 C212.922219,217.475564 214.787793,217.422272 216.645204,217.257907 C219.816573,216.685029 222.522261,214.629469 223.923945,211.728117 C226.118741,207.339394 225.919214,202.152723 226.126722,197.365026 C226.342211,192.329964 226.549719,187.294903 226.717321,182.259841 C226.860981,178.16636 227.07647,174.040961 226.972716,169.939501 C226.916848,167.808976 226.829056,165.670471 226.789151,163.555905 C226.621548,154.395444 226.517794,145.203066 226.366154,136.090482 C226.294324,131.781555 226.222495,127.480607 226.102779,123.179659 C226.128388,120.862804 226.005762,118.546683 225.735649,116.245478 C224.634261,109.311297 224.003756,102.377115 221.816941,95.6583805 C220.747477,92.3708285 219.486467,89.139133 218.704322,85.7638065 C217.955681,82.6979468 217.546189,79.5591357 217.483217,76.4038587 C217.483217,73.3716506 217.674763,70.2995449 217.219842,67.2912753 C216.959757,66.3565329 215.993282,65.8074272 215.05697,66.062433 C214.152369,66.3328503 213.609421,67.2549827 213.811922,68.1769992 C213.940073,69.5188397 213.990704,70.8669534 213.963563,72.2146238 C213.963563,73.8105228 213.963563,75.4064218 213.963563,77.0023208 C214.076124,80.2090139 214.514681,83.3959399 215.272459,86.5138791 C216.101122,89.7297863 217.092043,92.9017029 218.241419,96.0174578 C219.513602,99.9013645 220.450811,103.887052 221.042777,107.930844 C221.497698,110.859319 221.769055,113.819711 222.263881,116.708289 C222.300233,116.860719 222.32689,117.015299 222.343692,117.171099 C222.263881,117.171099 222.295806,116.580617 222.343692,116.883838 C222.349063,117.036039 222.362383,117.187857 222.383597,117.338669 C222.415522,117.769562 222.439465,118.200454 222.455427,118.631347 C222.615049,121.90294 222.670916,125.174533 222.742746,128.446126 C222.934292,137.830012 223.046027,147.213899 223.189686,156.597785 C223.277478,162.183431 223.564797,167.769078 223.477005,173.354725 C223.333345,182.387513 222.894386,191.420302 222.495332,200.445111 C222.295806,205.017361 222.208014,212.119112 216.748958,213.651175 C215.152743,214.090047 213.484698,213.834704 211.880502,213.874601 C209.973025,213.914498 208.073529,214.034191 206.174033,214.04217 C204.274537,214.05015 202.470814,213.954396 200.58728,214.082068 C198.703746,214.20974 197.067626,214.393268 195.311789,214.457104 C193.01324,214.544879 190.690747,214.337412 188.400178,214.257617 C185.774404,214.161863 183.132668,214.353371 180.506894,214.20176 C178.846699,214.230414 177.194895,213.960123 175.630457,213.403811 C174.494444,212.890413 173.422909,212.244941 172.438027,211.480752 C169.93995,209.573653 169.469067,206.397814 169.245597,203.501257 C168.726827,196.838379 169.085975,190.199439 168.982221,183.552519 C168.982221,181.797031 168.982221,180.033562 168.934335,178.278073 C168.934335,176.059774 168.710865,173.841474 168.798657,171.623174 C168.926354,168.088258 169.19771,164.553342 169.261559,161.018425 C169.381275,153.182561 168.255943,145.378615 168.551243,137.54275 C168.782694,131.55015 168.982221,125.573508 169.19771,119.572927 C169.421181,113.301044 169.780329,106.933407 171.216922,100.805155 C172.078879,97.0867101 173.371813,93.4400808 174.553012,89.8094105 C175.670363,86.3622686 177.003202,82.9869422 177.793329,79.4360669 C178.191623,77.6879531 178.492705,75.9191123 178.69519,74.1376821 C178.793611,73.3427662 178.793611,72.5387494 178.69519,71.7438335 C178.631342,71.3049613 178.527588,70.8740686 178.455758,70.4351963 C178.455758,70.251668 178.455758,69.8686522 178.375947,70.0043036 C179.844465,68.2966916 177.362351,65.7911302 175.885852,67.5147011 L175.885852,67.4987421 Z" id="Path" fill="#202622" fill-rule="nonzero"></path>
                <path d="M216.112466,66.7897474 C216.275694,66.8085964 216.440551,66.8085964 216.603779,66.7897474 C216.800159,66.7108159 216.947257,66.543272 217,66.3384554 C216.577312,62.3545428 216.384166,58.3496495 216.421518,54.3435896 C216.386656,53.4630303 216.240207,52.5904384 215.985675,51.7466814 C215.76141,50.6904971 214.923858,49.8724203 213.861933,49.6723218 C212.792692,49.3662689 211.692018,49.1829855 210.581226,49.1260209 C206.436758,48.9676729 202.395307,48.9835077 197.56934,49.0389295 C194.399575,49.0785165 191.103019,49.3002038 187.949103,49.5139737 C185.857058,49.656487 183.765013,49.7990002 181.672968,49.8940091 C180.505423,49.9714359 179.345259,50.1355148 178.202075,50.3848881 C177.568122,50.5036491 176.942094,50.6224101 176.316065,50.717419 C175.728948,50.7537201 175.220402,51.1371299 175.024386,51.6912596 C173.631869,54.9413695 172.943221,58.449023 173.00366,61.9838837 L173.384032,67.3281308 C173.439503,68.8482722 195.041452,67.3281308 205.874124,67.2252046 C207.01524,67.2252046 213.869857,66.9085084 216.080768,66.7976648" id="Path" fill="#F9F8FA" fill-rule="nonzero"></path>
                <path d="M216.366976,68.7498184 C217.085017,68.8193298 217.796027,68.5596928 218.303755,68.0425721 C218.811482,67.5254514 219.062238,66.8055295 218.986809,66.0815182 C218.906692,64.5533099 218.706399,63.0170158 218.610258,61.4807217 C218.530141,60.1465716 218.466047,58.79625 218.434,57.4378426 C218.48095,55.9648084 218.435459,54.4902519 218.297801,53.0230186 C218.20135,51.8056623 217.828525,50.6270524 217.208207,49.5784856 C216.455665,48.5769032 215.362772,47.8914927 214.139718,47.6540752 C211.487839,46.9748715 208.69976,47.0476433 205.975775,47.0153003 C200.119207,46.9506142 194.278663,47.0880721 188.430107,47.4842743 C185.401677,47.694504 182.301141,47.694504 179.304758,48.1634779 C177.97758,48.3185723 176.661154,48.5562065 175.362992,48.8750247 C173.880823,49.2954841 173.328015,50.4921763 172.8393,51.8101549 C171.807551,54.499539 171.191469,57.3329807 171.012627,60.2112577 C170.975289,61.5604295 171.020776,62.9106402 171.148827,64.2541368 C171.220932,65.3295427 171.269002,66.4130343 171.373155,67.4884401 C171.499515,68.6239045 172.393877,69.5164275 173.520296,69.631166 C176.003929,70.1567403 178.703879,69.9788536 181.219559,69.9384248 C185.177349,69.8737388 189.127127,69.7120236 193.076905,69.5583942 C200.832251,69.2592212 208.595608,69.1379348 216.310894,68.7498184 C218.578211,68.628532 218.594235,65.0627126 216.310894,65.183999 C210.358186,65.4993436 204.397466,65.6044584 198.436746,65.8146882 C191.554678,66.0572609 184.648575,66.5019776 177.758496,66.4049485 C176.716972,66.4049485 175.68346,66.3402624 174.649948,66.2513191 C174.137198,66.2108903 174.970417,66.3402624 174.513749,66.2513191 C174.384715,66.2139958 174.253635,66.1842976 174.121175,66.1623758 C173.720589,66.1057754 174.209304,66.2189761 174.201292,66.2189761 C174.19328,66.2189761 174.041058,66.0815182 174.273398,66.2917479 C174.674932,66.5653747 174.903406,67.0326943 174.874277,67.5207831 C174.896419,66.5084555 174.826693,65.4962074 174.665972,64.4967096 C174.593866,63.4698183 174.481702,62.4348412 174.481702,61.3998642 C174.507831,58.9683478 174.91339,56.5561693 175.68346,54.2520539 C175.972399,53.6697236 176.187729,53.0530762 176.324398,52.4165868 C176.324398,52.2225286 176.596797,52.1335852 176.244281,52.3438149 C176.452474,52.2795105 176.66776,52.2414873 176.885218,52.2306143 C178.175105,52.0042131 179.456981,51.6888685 180.754879,51.5594964 C183.470853,51.2926664 186.226884,51.2279803 188.950869,51.0500936 C191.674854,50.872207 194.406851,50.6943203 197.138847,50.6458057 C200.063125,50.5972912 202.995415,50.5811197 205.95174,50.6458057 C208.41935,50.6458057 211.183393,50.4517475 213.554862,51.2522376 C214.508257,51.5756679 214.556328,52.3195577 214.740597,53.2736771 C214.90224,54.6770341 214.947798,56.0915398 214.876796,57.5025287 C214.876796,58.9741367 214.980949,60.4376589 215.077089,61.9092669 C215.12516,62.6693282 215.181242,63.4293895 215.245335,64.1894507 L215.317441,64.9980266 C215.412461,65.4067831 215.468796,65.8237244 215.485687,66.2432333 L215.942355,65.4346575 L216.342941,65.2486851 C214.075624,65.2486851 214.067613,68.8145045 216.342941,68.8145045 L216.366976,68.7498184 Z" id="Path" fill="#202622" fill-rule="nonzero"></path>
                <path d="M216,164.262594 C215.741274,164.753827 214.649773,165.373907 213.954447,164.649138 C213.503984,164.055845 213.224453,163.351449 213.145928,162.61173 C212.927628,161.742007 212.943798,160.590428 212.499113,160.00256 C212.054427,159.414691 210.696115,159.567698 210.130152,160.614587 C209.822915,161.18635 209.64504,161.862802 209.321633,162.442617 C208.998225,163.022433 208.868862,164.053216 208.278643,164.536396 C207.734836,165.077175 206.938876,165.280771 206.200749,165.067894 C204.9718,164.76188 205.149675,161.96749 205.149675,161.96749 C205.497338,160.356891 202.950503,158.995935 202.053047,160.823965 C199.514297,167.556269 199.22323,163.940474 196.191284,160.308573 C194.800631,159.221419 193.984027,162.635889 193.361467,163.529771 C191.121869,168.361568 190.458884,159.173101 187.701834,159.503274 C186.561822,160.123355 186.424374,163.972686 185.219681,164.053216 C183.198383,164.206223 183.772431,159.704599 182.494971,159.124783 C180.117925,158.053735 180.797081,164.214276 179.042595,164.76188 C176.997042,165.373907 175.185959,162.345981 175,160.405209 M180.5141,189.8228 C180.57104,189.578319 180.700652,189.356612 180.886019,189.186614 C181.104319,188.936971 181.233682,188.663169 181.427726,188.381314 C181.669095,187.971719 182.070163,187.680134 182.535397,187.576015 C182.891513,187.49117 183.262698,187.49117 183.618813,187.576015 C183.853283,187.67265 183.958391,187.882028 184.12818,188.067247 C184.462927,188.498933 184.757885,188.959822 185.009466,189.444309 C185.238462,189.875978 185.532998,190.269846 185.882666,190.611994 C186.040982,190.752761 186.22485,190.862095 186.424374,190.934113 C186.877145,191.103226 187.022678,190.934113 187.329915,190.571729 C188.057582,189.645634 188.300138,188.228307 189.682706,188.018929 C190.369947,187.922293 190.677184,188.663169 190.911655,189.186614 C191.057188,189.516786 191.453362,190.797213 191.881877,190.877742 C192.067837,190.877742 192.819759,190.265715 192.787419,190.289874 C193.049407,190.054466 193.297753,189.80442 193.531256,189.540945 C193.992112,189.033607 194.452968,188.534321 194.921909,188.035035 C195.39085,187.53575 195.601065,186.819033 196.215539,187.229736 C196.490436,187.398849 196.579373,187.648491 196.765332,187.890081 C196.951292,188.131671 197.258529,188.389367 197.476829,188.695381 C197.8799,189.199741 198.380224,189.618668 198.948334,189.927489 C200.112601,190.491199 201.333465,188.953077 202.18241,188.31689 C202.538188,188.004114 202.970435,187.79024 203.435614,187.696809 C203.952333,187.566057 204.497909,187.60851 204.987971,187.817604 C205.714445,188.228274 206.354177,188.775214 206.87182,189.428203 C207.27608,189.887224 207.777361,190.732789 208.488858,190.595888 M182.090712,179.217006 C182.101434,179.687606 182.15283,180.156412 182.244331,180.618227 C182.317097,180.940347 182.357523,181.560427 182.672846,181.769805 C183.206468,182.124137 183.740091,180.883976 183.90988,180.586015 C184.275303,179.936176 184.58629,179.257423 184.839677,178.55666 C185.00138,178.105692 185.357129,177.477559 185.963518,177.493665 C186.569907,177.509771 186.836719,178.435865 187.014593,178.870727 C187.237343,179.458042 187.507743,180.026314 187.823112,180.569909 C188.219286,181.206095 188.874187,181.512109 189.44015,180.835658 C189.652709,180.547812 189.809043,180.222731 189.901006,179.877351 C190.044367,179.462709 190.211741,179.056694 190.402288,178.661349 C190.685269,178.041268 190.91974,177.332605 191.784855,177.437294 C192.64997,177.541983 192.771248,178.451971 192.957208,179.168688 C193.122837,179.681874 193.325495,180.182465 193.563597,180.666545 C193.735525,180.948709 194.029294,181.135319 194.358668,181.171595 C194.688042,181.207871 195.015648,181.089697 195.245317,180.851764 C195.843621,180.239736 195.560639,177.139333 197.298955,177.4534 C198.8028,177.719149 198.414711,178.814356 198.479393,179.217006 C198.60067,180.022305 198.641096,181.085301 199.611319,181.504056 C200.031749,181.681222 200.023664,181.818123 200.355157,181.504056 C200.677965,181.187823 200.980413,180.851613 201.260698,180.497432 C201.786235,179.812927 201.818576,178.749932 202.554329,178.194275 C203.290081,177.638619 203.920726,178.645243 204.106685,179.225059 C204.292644,179.804874 204.430093,180.22363 204.624137,180.690704 C204.863328,181.145989 205.330039,181.437804 205.845672,181.454478 C206.361305,181.471153 206.846037,181.210107 207.114376,180.771234" id="Shape" stroke="#222721" stroke-width="2.94" stroke-linecap="round" stroke-linejoin="round"></path>
                <path d="M189.802444,50.2684072 C189.687521,51.0578401 189.638268,54.8865898 189.547971,55.6839171 C189.438497,56.6908969 189.38643,57.7028853 189.392004,58.7153395 C189.392004,59.3468859 189.547971,59.9705379 189.531553,60.6099786 C189.515136,61.2494192 189.383795,62.0388522 189.375586,62.7651304 C189.375586,63.7756046 189.457674,64.8176561 189.375586,65.8281302 C189.375586,66.7122951 189.08007,67.5411997 189.08007,68.4332589 C188.97331,70.4423706 188.97331,72.4554147 189.08007,74.4645264 C189.12522,75.1322078 189.12522,75.8020047 189.08007,76.4696861 C189.08007,77.0065005 189.186784,77.5275262 189.219619,78.0485519 C189.285289,79.272173 189.219619,80.4800054 189.285289,81.7036264 C189.580806,84.9245127 192.667314,89.1637676 196.968723,87.7033167 C200.662682,86.4481183 201.28655,81.6088944 200.900737,78.553789 C200.839184,77.8972598 200.839184,77.2367359 200.900737,76.5802067 C200.900737,76.3196938 200.958199,76.0670753 200.974616,75.7907738 C200.974616,75.2776424 200.761187,74.8355599 200.794023,74.3224285 C200.843275,73.5961502 200.711935,72.9093436 200.703726,72.1830653 C200.703726,71.2436401 200.703726,70.3594752 200.74477,69.4279444 C200.81044,68.1648517 200.802231,66.901759 200.851484,65.6386663 C200.973353,63.9862452 201.00897,62.3289857 200.958199,60.6731332 C200.81044,58.6600792 200.777605,50.2999845 200.794023,50" id="Path" fill="#7DA75B" fill-rule="nonzero"></path>
                <path d="M188.773709,50.8892769 C188.538663,52.9579584 188.624846,55.0747488 188.468149,57.1594667 C188.378087,58.1188678 188.362368,59.0840593 188.42114,60.0459991 C188.480408,61.1147295 188.467319,62.1863769 188.381965,63.2532573 C188.334956,64.1512896 188.381965,65.05734 188.381965,65.9553723 C188.381965,66.9897131 188.170424,67.9679269 188.09991,68.9942495 C187.966697,71.0366041 187.966697,73.0857762 188.09991,75.1281308 C188.154754,75.9940905 188.139084,76.844014 188.154754,77.7099737 C188.170424,78.5759334 188.303617,79.5381109 188.303617,80.4682158 C188.303617,83.5552018 188.742369,86.3374983 190.842115,88.6948331 C192.781948,90.9581107 195.949495,91.6378099 198.614308,90.3626074 C201.050953,89.1999762 202.343707,86.5379519 202.758955,83.9480909 C202.972927,82.6802523 203.030833,81.3899725 202.931322,80.1073992 C202.860868,79.3612918 202.845154,78.6108297 202.884313,77.8623185 C202.906646,77.043424 202.877859,76.2239057 202.79813,75.4087659 C202.570918,71.5680742 202.845139,67.7193644 202.970497,63.8786726 C203.119359,59.5007652 202.649267,55.0587125 202.790295,50.7048595 C202.868643,48.4277062 199.40563,48.4357243 199.335116,50.7048595 C199.233263,54.0323899 199.335116,57.4080292 199.452639,60.7355596 C199.570162,63.9428178 199.452639,67.0859309 199.303777,70.2450802 C199.225428,71.9128545 199.303777,73.5645925 199.303777,75.2243486 C199.303777,75.9299454 199.491814,76.5954515 199.43697,77.2930301 C199.354381,78.0920108 199.338654,78.8967526 199.38996,79.6984738 C199.570162,81.7751735 199.546658,84.0443087 198.457611,85.880464 C198.004215,86.6738132 197.240034,87.229983 196.358947,87.4078688 C195.477861,87.5857546 194.564542,87.3682614 193.850706,86.8105689 C191.852814,85.2069398 191.711786,82.8014961 191.719621,80.484252 C191.719621,79.6824375 191.664777,78.9688225 191.594263,78.2070987 C191.523749,77.3170846 191.594263,76.4190523 191.547254,75.52102 C191.421896,73.7329735 191.47674,71.9529452 191.547254,70.1568806 C191.547254,69.130558 191.719621,68.1523442 191.813639,67.1340397 C191.86456,66.0976809 191.86456,65.0593581 191.813639,64.0229993 C191.813639,63.0367674 192.001676,62.0505355 191.954667,61.0643036 C191.907658,59.9577995 191.821474,58.8994043 191.876318,57.7929002 C192.001676,55.523765 191.970337,53.1985028 192.228887,50.9454039 C192.216148,49.9735113 191.447106,49.1900417 190.497381,49.1814119 C189.552778,49.2024693 188.790734,49.9788105 188.765874,50.9454039 L188.773709,50.8892769 Z" id="Path" fill="#202622" fill-rule="nonzero"></path>
                <path d="M196.505667,108.037277 C197.909352,107.682985 214.216155,102.959097 211.74567,99.998794 C209.275185,97.0384908 203.724616,97.424275 201.992068,97.7864398 C201.992068,97.7864398 198.73552,96.2118104 193.48173,97.5187528 C188.22794,98.8256951 180.062507,102.841 179.043833,107.667239 C178.025159,112.493478 195.085941,108.391568 196.489625,108.037277 M183.631876,106.006005 C185.236087,102.069432 195.093962,101.038049 195.093962,101.038049 C195.356161,101.210729 195.56882,101.446575 195.711583,101.723013 C196.088573,102.28988 199.449394,101.801745 200.123163,101.56555 C200.796931,101.329356 201.582995,100.297974 206.11489,101.061669 C210.646786,101.825364 198.58312,105.265929 195.68752,105.785557 C192.390867,106.383916 182.781644,108.100262 183.655939,105.998132" id="Shape" fill="#222721" fill-rule="nonzero"></path>
                <path d="M193.927646,129.096484 C191.637211,129.931496 191.525092,135.21712 192.870522,136.452937 C193.437934,137.031129 194.296679,137.165527 195.001893,136.786509 C195.707108,136.407491 196.100318,135.600228 195.977825,134.782914 C195.729561,132.904137 195.377186,132.611883 195.377186,132.611883 C195.377186,132.611883 196.178038,128.278172 193.927646,129.104834" id="Path" fill="#222721" fill-rule="nonzero"></path>
                <path d="M201.160047,133.260137 C201.694838,132.583102 200.989886,132.257122 201.548986,131.095297 C201.886153,130.696417 202.04565,130.169932 201.988657,129.643991 C201.931663,129.118049 201.663406,128.640888 201.249179,128.32865 C199.733939,127.033089 197.862171,129.858246 198.008023,131.755615 C198.089052,133.092967 199.76635,135.098996 201.192459,133.260137" id="Path" fill="#222721" fill-rule="nonzero"></path>
                <path d="M213.751048,135.308573 C213.564097,135.095553 211.312556,131.119174 210.223363,129.785825 C210.01593,129.421731 209.664041,129.155881 209.249492,129.05007 C208.834943,128.94426 208.393841,129.007706 208.028721,129.22566 C208.028721,129.22566 206.720064,130.1093 207.606049,131.955476 C208.492034,133.801652 211.328813,138.614333 211.670202,139.229724 C212.011591,139.845116 213.751048,143.174545 212.962602,144.665687 C212.174157,146.156829 209.589356,147.032579 206.459958,146.937903 L203.47687,146.851117 L203.704463,146.685435 C204.297829,146.243615 204.980607,145.746568 204.606705,144.926045 C204.354416,144.373657 203.691663,144.120558 203.119225,144.357991 C202.973918,144.434407 202.84219,144.532966 202.729066,144.649908 L202.322651,144.957604 C200.973352,145.943809 198.160958,148.010894 199.242023,150.125318 C199.78662,151.198309 200.957095,151.608571 202.046288,151.995163 C202.859119,152.27919 204.956222,153.738774 205.630871,152.523769 C205.924953,152.078396 205.860741,151.494499 205.476433,151.119413 C205.517075,151.119413 205.565845,151.17464 205.598358,151.206199 C205.287476,150.960908 204.94274,150.759078 204.574191,150.606586 C205.232584,150.606586 205.92349,150.606586 206.606268,150.606586 C209.296737,150.73282 214.580135,150.251552 216.579698,145.872802 C218.359797,141.96743 213.921742,135.497924 213.726663,135.277015" id="Path" fill="#222721" fill-rule="nonzero"></path>
                <path d="M194.229266,146.668312 C191.917026,146.58153 186.80493,146.620976 184.791551,146.455303 C182.778172,146.289629 181.016465,145.910947 180.576038,145.437595 C180.135611,144.964242 179.246893,143.859753 180.363689,141.49299 C180.929952,140.278051 182.054613,138.337306 183.021979,136.688461 C182.99445,137.029769 182.99445,137.37275 183.021979,137.714058 C183.242193,138.802769 185.011764,138.566093 185.200518,137.572052 C185.204429,137.627207 185.204429,137.682571 185.200518,137.737726 C185.193265,137.073752 185.224778,136.409922 185.294896,135.749645 C185.436461,134.1008 185.570162,132.546626 184.508419,131.615699 C182.754577,130.124638 180.1828,131.678812 178.452552,132.728077 L178.106502,132.941086 L177.964937,133.035757 L177.894154,133.090981 L177.721129,133.248765 C177.647129,133.313886 177.578726,133.38514 177.516645,133.461774 C177.452731,133.536908 177.397338,133.618933 177.351485,133.706339 C177.316013,133.794898 177.292218,133.887723 177.280702,133.982462 L177.280702,133.982462 C177.277579,134.314403 177.432406,134.627951 177.697535,134.826607 C178.326716,135.323627 178.916573,134.976502 179.585078,134.574153 L179.923263,134.376922 C179.34127,135.323627 178.672765,136.436006 178.004261,137.414268 C176.431308,139.717917 175.03138,144.78279 176.879599,147.307338 C178.727819,149.831885 183.776996,149.831885 184.469096,149.934445 C185.161195,150.037004 193.584356,150.029115 195.550546,149.839774 C197.831327,149.618876 196.738125,147.575571 196.738125,147.575571 C196.738125,147.575571 196.219051,146.68409 194.244996,146.613087" id="Path" fill="#222721" fill-rule="nonzero"></path>
                <path d="M207.227482,119.024874 C206.63169,118.851237 206.005367,119.182591 205.819269,119.769886 C205.611096,120.536125 205.525667,121.330028 205.566107,122.122554 C202.401583,115.06455 199.600979,113.83332 199.600979,113.83332 C195.352606,111.770815 193.074148,114.11564 192.362131,114.688123 C191.356252,115.813349 190.443496,117.017107 189.632729,118.287705 L186.658076,123.298888 C186.658076,123.298888 184.885943,126.498516 184.284683,127.768957 C183.683424,129.039397 184.221393,129.502089 184.221393,129.502089 C184.221393,129.502089 184.490377,130.286311 185.922324,129.886358 C186.713455,129.674618 188.79413,126.247565 188.833686,126.098562 C188.873243,125.94956 192.346308,120.177682 192.710228,119.824781 C193.074148,119.471881 194.672233,116.687891 196.436455,116.899631 C198.200677,117.111371 199.316172,118.319074 200.099392,119.722832 C200.597804,120.609004 201.547161,122.483296 202.172155,123.745895 C201.824057,123.612577 201.483871,123.479259 201.127862,123.37731 C200.57407,123.228308 199.767117,123.243992 199.458576,123.80079 C199.150034,124.357588 199.869964,125.282971 200.455401,125.471184 L200.922168,125.66724 C202.551898,126.349514 205.589841,127.635639 207.116723,125.941718 C207.907854,125.079073 207.852475,123.832159 207.812919,122.624456 C207.748623,121.868751 207.796602,121.107783 207.955322,120.365895 C208.039865,120.078756 208.003446,119.769914 207.854377,119.509843 C207.705308,119.249772 207.456306,119.060661 207.164191,118.985663" id="Path" fill="#222721" fill-rule="nonzero"></path>
                <path d="M283.730427,52.4104446 C286.288589,52.5784495 293.054041,53.6664811 293.818271,56.2665568 C294.132008,57.3385879 293.190798,60.7866882 292.89315,61.8667196 C288.412345,77.867185 286.996507,93.16363 292.515057,108.660081 C294.260721,113.548223 296.537323,118.26036 298.14623,123.164503 C299.602278,127.518389 300.56026,132.021608 301.002039,136.588893 C303.077529,162.557648 301.307731,169.49385 301.082484,185.390312 C300.977905,193.21454 302.804014,208.454983 297.526801,209.887025 C290.801571,211.711078 285.089953,211.543073 278.131432,211.79108 C273.261808,211.961752 268.392184,211.961752 263.522561,211.79108 C256.580129,211.511072 251.82581,213.783138 248.093147,207.958969 C245.905034,204.54287 245.092536,198.558695 244.955779,194.510578 C244.67422,186.110333 244.296127,177.510083 244.014569,169.101839 C243.789322,162.28564 246.23486,143.845104 247.280649,137.100908 C248.889555,126.836609 248.213815,127.284622 252.018879,117.612341 C255.823943,107.94006 259.033711,97.6597607 257.93161,87.3314603 C256.934088,77.8031832 254.343749,71.3309949 252.734842,63.3787636 C252.453283,61.9947234 251.037446,57.5065928 252.316526,55.2825281 C254.456372,51.5544197 264.592483,52.0184332 268.236657,52.0184332 C274.945797,52.0024327 277.04542,51.9864323 283.730427,52.4104446 Z" id="Path" fill="#47958B" fill-rule="nonzero"></path>
                <path d="M283.659045,54.5119612 C284.657539,54.5735621 285.649941,54.7099028 286.627813,54.9198244 C287.886003,55.1514377 289.119645,55.4995036 290.312627,55.9594759 C290.752573,56.1619384 291.17504,56.3999932 291.575761,56.6712372 C291.390716,56.5112909 291.994124,57.1590737 291.817124,56.9111568 C291.640125,56.6632399 291.897579,57.0791005 291.905624,57.0950951 C291.82517,56.8951622 291.768852,56.9431461 291.817124,56.9191541 L291.817124,56.8071917 L291.817124,57.0791005 C291.817124,57.2150549 291.817124,57.3510093 291.817124,57.4869638 C291.817124,57.8468431 291.857352,57.2550415 291.817124,57.6389128 C291.798757,57.802791 291.771903,57.9656192 291.73667,58.1267493 C291.607943,58.8625026 291.430943,59.5822613 291.245898,60.30202 C289.19431,68.2993387 287.343858,76.1926924 286.981813,84.4539226 C286.573021,92.8698232 287.791093,101.285596 290.570081,109.245611 C292.018261,113.292254 293.836531,117.194946 295.316893,121.241589 C296.853572,125.359057 297.985223,129.61486 298.695979,133.949329 C299.323523,137.947988 299.43616,142.130586 299.653387,146.193224 C299.830386,149.528105 299.951068,152.862987 299.991295,156.189872 C300.055659,161.180199 299.89475,166.162529 299.645341,171.144858 C299.403978,175.991233 299.130433,180.837608 299.090206,185.691981 C299.049978,191.226126 299.62925,196.776265 299.090206,202.302412 C298.99561,203.384043 298.801712,204.45481 298.510934,205.50134 C298.44657,205.733262 298.366116,205.965184 298.293707,206.205104 C298.293707,206.317066 298.213252,206.429029 298.16498,206.532994 C298.309798,206.181112 298.205207,206.45302 298.16498,206.532994 C298.124752,206.612967 297.971889,206.916865 297.867298,207.100803 C297.762707,207.284742 297.754662,207.276744 297.706389,207.364715 C297.456981,207.772578 297.979934,207.084809 297.666162,207.428693 L297.271935,207.820562 C297.642026,207.476677 297.271935,207.820562 297.127117,207.884541 C296.82139,208.044487 297.199526,207.884541 297.247799,207.844554 L296.990345,207.932524 C296.370846,208.068479 295.767437,208.252417 295.147938,208.388372 C293.225819,208.817241 291.277241,209.119134 289.314991,209.292069 C285.20377,209.659945 281.060366,209.683937 276.941099,209.803897 C272.41956,209.931854 267.889975,209.867876 263.368435,209.723924 C260.407712,209.627956 257.446989,210.107795 254.518447,209.88387 C253.458229,209.812504 252.438792,209.449806 251.573815,208.836221 C250.569049,207.987139 249.761964,206.931106 249.208454,205.741259 C247.808547,202.894214 247.341911,199.479358 247.100548,196.336412 C246.77873,192.217793 246.76264,188.05119 246.601731,183.916576 C246.336231,177.022887 245.756959,170.081215 246.239686,163.187526 C246.650003,157.245518 247.366048,151.319505 248.13841,145.417484 C248.782046,140.491135 249.554409,135.172918 250.342862,130.078626 C251.251997,124.232586 253.802403,118.88238 255.773537,113.36423 C258.64576,105.302933 260.785848,96.6898204 260.037622,88.076708 C259.36985,80.4312713 257.076898,73.1697059 255.314946,65.748194 C254.985083,64.3646579 254.695447,62.9651271 254.365584,61.581591 C254.002462,60.2791764 253.81577,58.9344272 253.810448,57.5829316 C253.813881,57.1252964 253.912491,56.6733122 254.100084,56.2553767 C254.100084,56.1993954 254.333402,55.9354839 254.172493,56.1354169 C254.011584,56.3353499 254.236857,56.0714383 254.285129,56.0314517 C254.333402,55.9914651 254.446038,55.8715054 254.534538,55.7995295 C254.623038,55.7275536 254.30122,55.9434812 254.614993,55.7435483 C254.928765,55.5436153 255.089674,55.4636421 255.339083,55.335685 C255.473966,55.2461306 255.623799,55.1811398 255.781582,55.1437494 C256.402115,54.9351486 257.033204,54.7589667 257.672261,54.6159263 C260.198647,54.1627748 262.765311,53.9698184 265.331524,54.0401194 C268.227883,54.0401194 271.124243,54.0401194 274.028648,54.0401194 C277.246826,54.0401194 280.465003,54.2240577 283.731454,54.4239907 C286.314041,54.5919344 286.305996,50.593275 283.731454,50.4253313 C277.351417,50.0254653 270.963334,49.9614868 264.575252,50.017468 C261.711759,49.9709006 258.852526,50.255382 256.055127,50.8651838 C253.440358,51.5129666 250.729043,52.8885055 250.021044,55.6635751 C249.280863,58.5985911 250.326771,61.6615642 250.938225,64.5326016 C251.742769,68.1393924 252.724313,71.7301885 253.633448,75.2650034 C254.668185,79.1783576 255.418347,83.1606385 255.878127,87.1810083 C256.325444,91.5266787 256.122097,95.9142612 255.274719,100.200643 C254.409664,104.514193 253.20174,108.752737 251.662315,112.876394 C250.391135,116.379219 248.902728,119.810069 247.752229,123.352881 C246.191413,128.151272 245.789141,133.381519 245.057005,138.379843 C244.188098,144.244544 243.439871,150.13057 242.812327,156.037923 C242.514645,158.916958 242.2411,161.795992 242.080191,164.683025 C241.919282,167.570057 242.031919,170.60104 242.144555,173.576043 C242.316191,178.214488 242.493191,182.850267 242.675554,187.48338 C242.828418,191.48204 242.828418,195.560672 243.383553,199.559332 C243.86628,202.990181 244.67887,206.700937 246.754594,209.55598 C248.540717,212.141554 251.432287,213.75741 254.582811,213.930514 C257.672261,214.17843 260.793893,213.674599 263.899435,213.786562 C268.565792,213.957171 273.237513,213.957171 277.914598,213.786562 C282.170637,213.64261 286.450814,213.650607 290.690762,213.162771 C292.858023,212.92627 295.007858,212.552299 297.127117,212.043146 C298.365987,211.828257 299.510371,211.245547 300.409658,210.371707 C302.083111,208.580307 302.61411,206.03716 302.927882,203.685948 C303.27377,200.740263 303.394797,197.772774 303.289927,194.808924 C303.193382,189.36275 303.056609,183.972557 303.289927,178.526383 C303.483018,173.727992 303.79679,168.929601 303.933563,164.13121 C304.102517,157.869309 303.933563,151.599411 303.6037,145.33751 C303.460457,140.972298 303.079079,136.618024 302.461247,132.293884 C301.67966,127.842898 300.467209,123.477401 298.840797,119.258254 C297.231708,115.059662 295.332983,110.973032 293.933076,106.702463 C292.582069,102.642401 291.678369,98.4485746 291.237853,94.1946569 C290.360899,85.5495553 291.326352,76.8644671 293.27335,68.4192985 C294.077894,65.0524273 295.244484,61.7255427 295.72721,58.3026903 C295.952483,56.7032265 295.855937,55.3516796 294.761757,54.1120952 C293.781064,53.1601036 292.587145,52.4529705 291.27808,52.048787 C288.839151,51.1678312 286.28252,50.6504008 283.691226,50.5133018 C282.580382,50.5133018 281.679865,51.4084322 281.679865,52.5126315 C281.679865,53.6168308 282.580382,54.5119612 283.691226,54.5119612 L283.659045,54.5119612 Z" id="Path" fill="#222721" fill-rule="nonzero"></path>
                <path d="M265.254545,73.6753247 C262.402597,73.5714286 259.574026,73.3116883 256.745455,73 C255.78324,73.0040639 255.004267,73.7459425 255,74.6623377 C255.024569,75.5705527 255.791829,76.3012763 256.745455,76.3246753 C259.574026,76.6363636 262.402597,76.8961039 265.254545,77 C266.215006,76.9919403 266.991537,76.2523868 267,75.3376623 C266.975431,74.4294473 266.208171,73.6987237 265.254545,73.6753247 L265.254545,73.6753247 Z" id="Path" fill="#222721" fill-rule="nonzero"></path>
                <path d="M289.993579,73 C286.333868,73.3304348 282.671482,73.5478261 279.006421,73.6521739 C277.898305,73.6521739 277,74.6254679 277,75.826087 C277,77.026706 277.898305,78 279.006421,78 C282.676833,77.8956522 286.339219,77.6782609 289.993579,77.3478261 C291.101695,77.3478261 292,76.3745321 292,75.173913 C292,73.973294 291.101695,73 289.993579,73 L289.993579,73 Z" id="Path" fill="#222721" fill-rule="nonzero"></path>
                <path d="M277.087215,54.2359186 C277.144493,65.1136495 276.764375,75.9806949 275.94686,86.8370549 C275.829701,88.3677376 275.689109,89.9064343 273.931713,89.9785607 C272.432069,90.0426731 271.283903,88.6642573 270.721537,87.3499538 C269.760827,85.0980071 269.940472,82.4052879 269.940472,80.0171024 C269.940472,77.3884955 269.940472,74.7518746 269.940472,72.1232678 C270.0342,66.0806776 270.294555,60.0407588 270.721537,54.0035113 C270.717256,52.8988271 269.845522,52.0043924 268.768875,52 C267.699173,52.0213178 266.836989,52.905954 266.816213,54.0035113 C266.404852,60.0407588 266.144497,66.0806776 266.035148,72.1232678 C265.988284,75.0163381 265.988284,77.9094085 266.035148,80.8024788 C266.082012,83.6955492 266.113254,86.5245072 267.26142,89.1611281 C268.180361,91.4392423 270.07015,93.1565583 272.385205,93.8172884 C274.58806,94.3769141 276.911165,93.628754 278.407215,91.8778894 C280.141178,89.682041 279.899048,86.324156 280.078693,83.6554789 C280.286977,80.6154844 280.458811,77.5701472 280.594196,74.5194673 C280.901415,67.7662985 281.034196,61.0051156 280.992539,54.2359186 C280.992539,51.6553961 277.087215,51.6553961 277.087215,54.2359186 Z" id="Path" fill="#222721" fill-rule="nonzero"></path>
                <path d="M269.849528,128.011646 C267.220192,128.075153 264.429546,128.416503 262.227679,129.948606 C260.164306,131.337631 258.951302,133.656765 259.001499,136.116712 C259.332183,141.999037 266.857246,142.538845 271.349701,142.864318 C274.216134,143.078787 277.096361,143.038934 279.955535,142.745243 C282.504217,142.483277 285.238404,142.245126 287.367683,140.713023 C289.166278,139.41907 290.448684,137.347158 289.851841,135.092664 C289.254998,132.838169 287.157981,131.353696 285.133553,130.432846 C280.431397,128.289489 274.995284,127.924324 269.873724,128.011646 C267.284715,128.051338 267.27665,132.020518 269.873724,131.980826 C273.361915,131.841201 276.853332,132.164282 280.253957,132.941368 C281.842707,133.280887 283.356306,133.899375 284.722215,134.767191 C285.187591,135.06985 285.581023,135.467913 285.875575,135.93413 C285.931966,136.078081 285.95136,136.233513 285.932033,136.386616 C285.932033,136.156404 285.770724,136.720027 285.932033,136.442185 C285.835247,136.600952 285.762658,136.759719 285.649742,136.910548 C284.843197,137.942535 283.068798,138.347391 281.66541,138.561727 C277.213889,139.180887 272.696025,139.180887 268.244504,138.561727 C266.752396,138.339453 264.695706,138.180686 263.550412,137.085192 C262.405119,135.989698 263.082616,134.497287 264.026274,133.592313 C265.518382,132.163409 267.881558,132.004641 269.841462,132.004641 C272.446602,131.917319 272.454668,127.948139 269.849528,128.011646 Z" id="Path" fill="#222721" fill-rule="nonzero"></path>
                <path d="M260.75048,154.442166 C257.946279,157.315392 256.098424,160.726345 256.001169,164.787385 C255.956243,168.493159 257.207616,172.100162 259.542891,174.996166 C261.970375,177.914493 265.234157,180.035597 268.903735,181.079701 C272.575132,182.179232 276.805747,182.460134 280.404202,180.991417 C284.002656,179.522701 286.798752,176.649475 289.003211,173.503373 C291.20767,170.35727 292.966374,166.464771 292.998792,162.475963 C293.05084,158.640005 291.418451,154.970654 288.525038,152.419671 C286.210488,150.340553 283.365801,148.927886 280.298841,148.334554 C273.166591,147.088167 265.869027,149.368189 260.75048,154.442166 C258.91073,156.280067 261.771663,159.113165 263.611414,157.283289 C267.145626,153.789499 271.96715,151.876175 276.959735,151.98628 C281.668523,152.114692 287.228298,154.755171 288.59798,159.699046 C289.289903,162.699104 288.827551,165.846849 287.301239,168.527394 C285.922113,171.32319 283.944693,173.788031 281.506431,175.750589 C276.643654,179.458495 269.219816,178.15832 264.689329,174.45844 C262.134148,172.436543 260.488463,169.497364 260.110215,166.280178 C259.745507,162.716736 261.155712,159.779304 263.611414,157.259211 C265.394432,155.42131 262.565917,152.580187 260.75048,154.442166 Z" id="Path" fill="#222721" fill-rule="nonzero"></path>
                <path d="M271.28017,158.995724 C270.425491,160.514362 269.983862,162.235985 270.000451,163.984514 C270.012084,164.519314 270.223652,165.02965 270.592321,165.4122 C271.163955,165.986924 272.019641,166.157994 272.763565,165.84628 C273.507489,165.534566 273.994599,164.800845 273.999574,163.984514 C273.995647,163.585805 274.019702,163.187317 274.071559,162.792072 L273.999574,163.327454 C274.094348,162.655095 274.27447,161.997991 274.535457,161.372497 L274.335501,161.859208 C274.451336,161.580312 274.584922,161.309345 274.735413,161.048023 C274.995704,160.573803 275.067246,160.016555 274.935369,159.490547 C274.79157,158.981554 274.462894,158.546756 274.015571,158.273769 C273.547685,158.001859 272.992664,157.928944 272.471909,158.070973 C271.974798,158.222179 271.550348,158.554427 271.28017,159.003836 L271.28017,158.995724 Z" id="Path" fill="#222721" fill-rule="nonzero"></path>
                <path d="M277.606131,160.477976 L277.056319,163.45462 C276.981227,163.71846 276.981227,163.995279 277.056319,164.259118 C277.069909,164.525566 277.161758,164.783875 277.322357,165.007302 C277.615255,165.458375 278.088476,165.789719 278.643679,165.932475 C279.221371,166.068964 279.834899,165.996867 280.355191,165.73135 C280.856102,165.46567 281.222236,165.032423 281.375003,164.524603 L281.915947,161.547959 C282.01018,161.288286 282.025498,161.010367 281.960287,160.743461 C281.941164,160.477947 281.849756,160.22088 281.694249,159.995278 C281.398214,159.534011 280.911503,159.198998 280.342114,159.064574 C279.772725,158.93015 279.167746,159.007433 278.661415,159.279274 C278.155058,159.535478 277.786502,159.968684 277.641603,160.477976 L277.606131,160.477976 Z" id="Path" fill="#222721" fill-rule="nonzero"></path>
                <path d="M106.849585,116.011479 C104.220256,116.074966 101.429619,116.42414 99.2277572,117.955747 C97.1632522,119.343332 95.9499101,121.662365 96.0015868,124.121851 C96.3322693,129.994331 103.857312,130.5419 108.349754,130.867267 C111.216302,131.077692 114.09616,131.037857 116.955564,130.748231 C119.504238,130.48635 122.238418,130.248276 124.36769,128.71667 C126.16628,127.423137 127.448683,125.351897 126.851841,123.098135 C126.255,120.844372 124.157989,119.36038 122.133567,118.439829 C117.431424,116.297168 111.995327,115.924186 106.873781,116.011479 C104.284779,116.059094 104.276714,120.026986 106.873781,119.979372 C110.372481,119.845222 113.873814,120.168112 117.286246,120.939601 C118.875427,121.281787 120.388995,121.902751 121.754492,122.772768 C122.219867,123.075328 122.613297,123.473263 122.907848,123.939328 C122.964902,124.083068 122.984317,124.238615 122.964306,124.391668 C122.964306,124.16153 122.802997,124.724971 122.964306,124.447218 C122.867521,124.597998 122.794932,124.764649 122.682016,124.915429 C121.875473,125.947081 120.10108,126.351806 118.697696,126.558137 C116.476335,126.883549 114.23309,127.042721 111.987261,127.034284 C109.741978,127.043787 107.499053,126.889942 105.276827,126.574008 C103.784723,126.351806 101.728039,126.193091 100.582749,125.097952 C99.4374583,124.002814 100.114954,122.510887 101.058609,121.606207 C102.550713,120.177766 104.913883,120.019051 106.873781,119.979372 C109.446652,119.915885 109.454717,115.947993 106.849585,116.011479 Z" id="Path" fill="#222721" fill-rule="nonzero"></path>
                <path d="M97.7504609,142.444442 C94.9462714,145.317871 93.098424,148.729066 93.0011689,152.790394 C92.9562427,156.49643 94.2076115,160.103689 96.5428764,162.999898 C98.9727474,165.915785 102.235617,168.036455 105.903682,169.083864 C109.575064,170.183472 113.805662,170.456368 117.404101,168.987548 C121.002541,167.518727 123.798626,164.653324 126.003076,161.506999 C128.207525,158.360674 129.966222,154.467899 129.99864,150.478808 C130.053924,146.641927 128.420976,142.971042 125.524904,140.421804 C123.221285,138.34501 120.387685,136.932174 117.33116,136.336397 C110.19866,135.085709 102.899191,137.366497 97.7828793,142.444442 C95.9431365,144.274447 98.8040582,147.115771 100.643801,145.27774 C104.179585,141.786087 109.000018,139.873053 113.992067,139.980355 C118.700836,140.108777 124.260588,142.749443 125.630264,147.693668 C126.324568,150.693844 125.862091,153.84267 124.333529,156.522642 C122.953527,159.318084 120.976256,161.782926 118.538744,163.746348 C113.675988,167.44649 106.25218,166.15425 101.721712,162.454107 C99.1667385,160.428439 97.5213717,157.486723 97.1426164,154.26724 C96.7779097,150.711572 98.188109,147.765905 100.643801,145.245634 C102.426812,143.447734 99.56589,140.582331 97.7504609,142.444442 Z" id="Path" fill="#222721" fill-rule="nonzero"></path>
                <path d="M108.280206,147.998381 C107.424754,149.513179 106.983022,151.231776 107.000499,152.977194 C107.006827,153.515308 107.219032,154.0299 107.592364,154.412454 C108.165029,154.987977 109.022625,155.158451 109.767254,154.844783 C110.511884,154.531115 110.997812,153.794693 110.999584,152.977194 C110.995407,152.581322 111.019464,152.185662 111.071568,151.793307 L110.999584,152.328489 C111.093289,151.656155 111.273447,150.999159 111.535462,150.374264 L111.335507,150.860793 C111.449754,150.581263 111.583391,150.310291 111.735416,150.049912 C111.995704,149.57587 112.067246,149.01883 111.93537,148.493019 C111.791572,147.984216 111.462899,147.549582 111.015581,147.276697 C110.54916,147.000517 109.992369,146.927396 109.471934,147.073977 C108.973402,147.222301 108.548048,147.555136 108.280206,148.00649 L108.280206,147.998381 Z" id="Path" fill="#222721" fill-rule="nonzero"></path>
                <path d="M115.606528,149.478923 L115.056356,152.456692 C114.981215,152.720631 114.981215,152.997555 115.056356,153.261494 C115.065895,153.528696 115.158149,153.788071 115.322568,154.00996 C115.946057,154.963566 117.30046,155.28323 118.357392,154.726234 C118.859374,154.465008 119.226433,154.033681 119.377874,153.527079 L119.919173,150.54931 C120.008961,150.288794 120.024229,150.011848 119.963542,149.744508 C119.944406,149.478893 119.852938,149.221729 119.697329,148.996041 C119.076842,148.039528 117.721747,147.716107 116.662505,148.271719 C116.15529,148.531309 115.786748,148.967284 115.642023,149.478923 L115.606528,149.478923 Z" id="Path" fill="#222721" fill-rule="nonzero"></path>
                <path d="M10.0434286,142.427238 C11.9827718,150.958001 6.92605461,159.311876 4.57800685,167.746155 C3.3062589,172.741345 2.61778951,177.867969 2.52647024,183.022732 C2.35016631,187.702189 1.66097823,192.269082 2.20591764,196.956579 L2.0776966,194.914342 C2.12577949,200.880247 1.34843945,207.963755 7.9438091,210.705498 C12.0468823,212.418083 16.6227706,212.659292 21.0944793,212.884421 L22.88156,212.972864 C24.484323,213.053267 26.087086,212.924622 27.689849,212.972864 L30.0939934,212.972864 L31.8810742,212.884421 C36.344769,212.667332 40.9206573,212.418083 45.0237306,210.705498 C51.0020365,208.221044 51.3225891,200.711401 50.849774,195.13947 C50.849774,195.65405 50.7856635,196.168629 50.761622,196.675168 C51.194368,187.18761 50.9459398,176.936222 48.3574776,167.730074 C46.0735403,159.311876 41.0168231,150.974081 42.9641801,142.427238 C42.1063761,140.713981 40.5902098,139.425044 38.7649411,138.857343 C36.9460662,138.307483 35.0548444,138.036415 33.1552707,138.053313 C25.3097459,137.731701 16.9753785,138.825182 10.0434286,142.427238 Z" id="Path" fill="#BF3C37" fill-rule="nonzero"></path>
                <path d="M8.08974379,143.039007 C9.53045435,149.660501 6.4249227,156.27397 4.22383713,162.365744 C2.97827875,165.715905 2.05365248,169.177377 1.46247522,172.703302 C0.927799527,176.522182 0.593840236,180.366623 0.461981774,184.220689 C0.229867295,188.474498 -0.274381401,192.712254 0.189847558,196.966063 C0.219226096,198.061795 1.0981202,198.943116 2.19083445,198.972576 C3.29232193,198.963844 4.18311352,198.070592 4.19182134,196.966063 L4.06375817,194.927445 C3.91168317,192.37516 0.0617843967,192.318977 0.0617843967,194.927445 C0.0617843967,199.333749 -0.330409033,204.245694 2.02275155,208.194512 C5.13628715,213.419473 12.1077255,214.270235 17.6064374,214.671538 C22.5310579,215.039351 27.4737828,215.098324 32.4057365,214.848111 C35.7273035,214.767769 39.0340524,214.375452 42.2826078,213.676307 C44.9079025,213.034223 47.589225,212.071096 49.4861606,209.96827 C53.0319093,206.003399 53.2640238,200.18451 52.8478185,195.152175 C52.8478185,194.044008 51.9519462,193.145661 50.8468316,193.145661 C49.7417171,193.145661 48.8458447,194.044008 48.8458447,195.152175 C48.8458447,195.665842 48.7818132,196.179509 48.7578013,196.685151 L52.7597751,196.685151 C53.1148601,190.352881 52.9569308,184.002159 52.2875422,177.695507 C51.9281755,174.478817 51.3505523,171.290433 50.5586895,168.152529 C49.7582948,165.158811 48.6857658,162.269432 47.6212408,159.380052 C46.5262354,156.592273 45.6380495,153.727205 44.9639302,150.808227 C44.6699005,149.428056 44.5143823,148.021837 44.4997012,146.610601 C44.4917898,145.873043 44.5318948,145.135755 44.6197604,144.403436 C44.7158078,143.60083 45.0759854,142.798225 44.8678828,141.99562 C44.0674881,139.210579 40.865909,137.364587 38.27263,136.722502 C35.2628425,136.098552 32.1838775,135.877247 29.116114,136.064366 C22.1766915,136.232913 15.2132571,137.565238 9.01019776,140.767633 C6.71306482,141.947463 8.73806355,145.406693 11.0271925,144.226863 C16.0256256,141.777516 21.4764468,140.39465 27.0350877,140.165679 C29.8447786,139.962456 32.6663992,139.991985 35.4712484,140.253966 C37.7523734,140.502774 40.1775695,141.281301 41.2020748,143.512544 L41.0019761,141.963515 C39.4011866,149.186964 42.1785564,156.065292 44.6197604,162.759021 C47.0978962,169.62907 48.5070716,176.840586 48.7978211,184.140429 C48.9979198,188.305951 48.9338882,192.479499 48.7497974,196.645021 C48.6377421,199.22941 52.6317119,199.221384 52.7517712,196.645021 C52.7517712,196.139379 52.8077988,195.625712 52.8398146,195.112044 L48.8218329,195.112044 C49.1339869,198.88429 49.2460421,203.138098 47.2210434,206.34852 C46.1645223,207.993861 44.4436736,208.844622 42.4827064,209.430524 C39.7271753,210.184326 36.8932302,210.612612 34.0385418,210.706667 C29.5934506,210.983529 25.1365607,211.015682 20.6879572,210.80298 C17.8449345,210.744422 15.0120164,210.443701 12.2197807,209.904062 C10.0347031,209.414472 7.68954642,208.756336 6.13678059,207.062838 C4.99688155,205.588863 4.32735078,203.804112 4.21583318,201.942216 C3.97571475,199.606634 4.07976607,197.246975 4.06375817,194.903367 L0.0617843967,194.903367 L0.189847558,196.941985 L4.19182134,196.941985 C3.77561606,193.145661 4.12778975,189.349338 4.37591213,185.553014 C4.6240345,181.756691 4.68006214,178.064706 5.23233452,174.316539 C5.79994927,170.661923 6.72761099,167.072765 8.00170037,163.601757 C9.17828066,160.319101 10.4909281,157.068549 11.3873702,153.68958 C12.4949288,149.882252 12.6787933,145.864587 11.9236347,141.971542 C11.4033781,139.451361 7.53747141,140.518826 8.08974379,143.039007 Z" id="Path" fill="#202622" fill-rule="nonzero"></path>
                <path d="M43.105121,129.657917 C32.949825,129.007375 21.962777,128.864573 11.7995595,129.118443 C11.2345486,129.091451 10.6708819,129.194585 10.1518984,129.419914 C9.43115283,129.929143 8.95019845,130.711877 8.82109516,131.585745 C7.89680134,135.140683 7.7508817,138.853739 8.39333698,142.470436 C20.4844002,143.176521 32.6062688,143.176521 44.697332,142.470436 C45.410295,138.135161 44.8573867,133.685909 43.105121,129.657917 L43.105121,129.657917 Z" id="Path" fill="#F9F8FA" fill-rule="nonzero"></path>
                <path d="M43.1630919,127.676094 C36.5555016,127.257181 29.9373223,127.031816 23.3085539,127 C20.0047587,127 16.7062582,127.029165 13.4130521,127.087494 C11.8246891,127.087494 10.0377806,126.992046 8.69561388,128.002209 C7.48051615,128.916924 7.01989087,130.388422 6.69427644,131.78038 C5.86383784,135.472492 5.7774379,139.293463 6.44013836,143.019442 C6.68388098,143.876981 7.46389044,144.470183 8.35411582,144.475032 C20.4764975,145.174989 32.6290732,145.174989 44.7514549,144.475032 C45.6420987,144.4639 46.4200296,143.869047 46.6654324,143.011488 C47.4582133,138.147296 46.8350834,133.157343 44.8705822,128.638533 C44.312456,127.696905 43.1030945,127.378162 42.1544814,127.922669 C41.2286832,128.492433 40.9138643,129.690586 41.439718,130.642952 C42.9541946,134.207631 43.4385074,138.126683 42.8374775,141.9536 L44.7514549,140.498011 C32.6290732,141.197968 20.4764975,141.197968 8.35411582,140.498011 L10.2680933,141.961554 C9.95861004,140.088017 9.8706435,138.18448 10.0060134,136.290322 C10.0598054,135.490085 10.1579054,134.693456 10.2998605,133.904109 C10.4269296,133.196199 10.4984059,131.939461 10.9352058,131.350861 C11.1893439,131.016792 11.2846456,131.104286 11.7690964,131.096332 C12.7432924,131.064516 13.7201356,131.040654 14.6996262,131.024746 C16.5659528,130.984975 18.4243375,130.969067 20.2588968,130.961113 C27.8830394,130.961113 35.5045348,131.186478 43.1233828,131.637207 C45.7124146,131.812196 45.7044728,127.835174 43.1630919,127.676094 Z" id="Path" fill="#202622" fill-rule="nonzero"></path>
                <path d="M21.4367775,160.008479 C19.4080867,160.065714 17.2264391,160.327356 15.5278131,161.561981 C13.9985809,162.62934 13.0601682,164.371623 13,166.255191 C13,170.989282 18.699655,171.561625 22.1532596,171.864149 C24.457744,172.060409 26.7750054,172.04399 29.0765693,171.815091 C31.0730587,171.610683 33.2305552,171.430804 34.9211308,170.228884 C36.3969711,169.320557 37.198043,167.606518 36.957872,165.870904 C36.6197568,164.088465 35.0499366,162.85384 33.5445192,162.085266 C29.8655046,160.221064 25.494159,159.943069 21.4689789,160.008479 C19.4644392,160.008479 19.4563889,163.221775 21.4689789,163.189069 C24.1404751,163.081324 26.8143781,163.328709 29.4227348,163.924939 C30.6436379,164.193039 31.8112358,164.668492 32.8763394,165.331266 C33.6330732,165.830022 34.2690517,166.451423 33.6813754,167.187292 C32.9890444,168.062158 31.7009868,168.282919 30.678591,168.438269 C28.9519044,168.701272 27.2079393,168.829742 25.4619576,168.822557 C23.6565878,168.838941 21.8528488,168.707696 20.0682163,168.430093 C18.9572666,168.25839 17.4679499,168.119393 16.6065614,167.285408 C15.7451728,166.451423 16.2684462,165.094153 17.0573815,164.390989 C18.2327341,163.336243 19.9796623,163.221775 21.4689789,163.189069 C23.4413172,163.131835 23.4493675,159.959422 21.4367775,160.008479 Z" id="Path" fill="#222721" fill-rule="nonzero"></path>
                <path d="M15.5914723,179.91687 C13.4530662,181.9576 12.1707572,184.733563 12.0040746,187.682925 C11.9296936,190.558756 12.8757051,193.368246 14.6748685,195.61472 C18.1674451,199.994965 25.2553213,202.37845 30.5574003,200.152812 C33.2122297,198.892963 35.4518721,196.902414 37.0131358,194.415086 C38.8655629,191.925794 39.9081581,188.928464 40,185.828227 C39.9288842,180.414087 35.543409,176.254827 30.3993651,175.260393 C24.9954593,174.298004 19.4619984,176.037123 15.5835706,179.91687 C14.1849596,181.313813 16.3737463,183.484204 17.748652,182.087261 C20.4036753,179.436223 24.0223277,177.975108 27.7759818,178.038494 C31.3159689,178.117418 35.4643914,180.043147 36.5864409,183.657836 C37.9850519,188.140681 34.8954649,193.302267 31.4819058,196.064583 C27.7838835,199.047885 22.0551096,198.092913 18.5467295,195.204319 C16.635951,193.671549 15.3998036,191.454235 15.1015634,189.024622 C14.8545426,186.426667 15.8331338,183.862023 17.748652,182.087261 C19.1314595,180.666641 16.9584763,178.527819 15.5914723,179.91687 Z" id="Path" fill="#222721" fill-rule="nonzero"></path>
                <path d="M23.0215747,184.769395 C22.3407877,185.902863 21.9885061,187.18596 22.000286,188.489181 C22.0062966,188.888289 22.1743631,189.269961 22.4697494,189.555312 C22.7696117,189.839969 23.1771594,190 23.6022267,190 C24.027294,190 24.4348417,189.839969 24.734704,189.555312 C25.0259239,189.267374 25.1932779,188.88732 25.2041674,188.489181 C25.1959696,188.192699 25.2124931,187.896067 25.2535846,187.602035 L25.1959312,187.998916 C25.2727203,187.498626 25.4166392,187.009614 25.6242135,186.543686 L25.4677257,186.909439 C25.5597943,186.697816 25.6671167,186.492409 25.7889375,186.294663 C25.9985637,185.942049 26.0546887,185.526184 25.9454253,185.135148 C25.7233047,184.329831 24.8561647,183.843795 24.0016823,184.045671 C23.6046538,184.159046 23.2649831,184.405283 23.0462833,184.738267 L23.0215747,184.769395 Z" id="Path" fill="#222721" fill-rule="nonzero"></path>
                <path d="M28.3568568,186.048903 L28.0332267,188.181871 C27.9889244,188.368976 27.9889244,188.565039 28.0332267,188.752144 C28.0445745,188.943487 28.09892,189.129011 28.1915989,189.292792 C28.370962,189.613059 28.6562948,189.848523 28.9903454,189.951938 C29.3393814,190.049971 29.7102453,189.996785 30.0232073,189.803816 C30.3268894,189.618112 30.5479017,189.308281 30.6360387,188.944704 L30.9665545,186.819142 C31.0111485,186.629569 31.0111485,186.431036 30.9665545,186.241463 C30.9567924,186.051019 30.8997243,185.866876 30.8012966,185.708221 C30.6257213,185.384339 30.3388658,185.147619 30.0025501,185.049075 C29.6565494,184.950823 29.2885783,185.001292 28.9765739,185.189791 C28.6744431,185.377404 28.4539954,185.686444 28.3637425,186.048903 L28.3568568,186.048903 Z" id="Path" fill="#222721" fill-rule="nonzero"></path>
            </g>
        </g>
    </g>
</svg>