<?xml version="1.0" encoding="utf-8"?>
<!-- Generator: Adobe Illustrator 24.2.0, SVG Export Plug-In . SVG Version: 6.00 Build 0)  -->
<svg version="1.1" id="Ebene_1" xmlns="http://www.w3.org/2000/svg" xmlns:xlink="http://www.w3.org/1999/xlink" x="0px" y="0px"
	 viewBox="0 0 600 600" style="enable-background:new 0 0 600 600;" xml:space="preserve">
<style type="text/css">
	.st0{fill-rule:evenodd;clip-rule:evenodd;fill:#FAFBFC;}
	.st1{fill:#060300;}
</style>
<path id="Fill-1" class="st0" d="M361.3,505.1c-58.9,13.6-119.9,12.6-179.9,9.1c-36.8-2-76.1-5.5-106.3-27.2
	c-26.2-18.6-42.8-48.9-50.9-80.1c-8.6-31.7-9.1-64.5-9.1-97.2c0-74.6,8.1-156.2,59.4-208.1c23.2-23.2,52.9-38.3,82.1-52.9
	c26.2-13.1,52.9-26.2,81.6-32.2c21.7-4.5,43.8-4.5,65.5-2.5c81.6,7.1,160.7,42.8,221.2,100.8c14.6,13.6,27.7,28.7,37.8,46.4
	c18.6,33.3,23.7,73.1,21.7,111.3c-4,74.6-35.8,149.6-94.7,193c4,43.8,33.8,86.2,72,105.8c-22.7,14.6-50.4,18.1-77.1,15.6
	c-26.7-2.5-51.9-12.6-74.6-26.7C388,546.4,369.8,529.3,361.3,505.1"/>
<path class="st1" d="M500.1,597.5c-5.3,0-10.8-0.3-16.3-0.8c-26.3-2.5-52.9-12-78.9-28.2c-24-14.8-40.4-31.8-49.7-51.8
	c-58.2,12.1-118.1,10.8-174.3,7.5c-38.9-2.1-79.6-6.1-111.6-29.1c-25.8-18.3-45.2-48.8-54.8-85.8c-8.7-32.2-9.4-64.2-9.4-99.8
	c0-70.9,7.1-159.3,62.4-215.2c24.9-24.9,56.7-40.8,84.8-54.8c24.9-12.5,53.2-26.6,84-33.1c20.2-4.2,42.6-5.1,68.5-2.7
	c84.5,7.3,165.2,44.1,227.2,103.5c16.9,15.7,29.9,31.7,39.6,48.6c17.7,31.5,25.4,70.8,23,116.9c-4.4,81.1-39.4,154.2-94.1,197
	c5.5,38,31.4,74.6,66,92.3c3.2,1.6,5.3,4.9,5.5,8.5c0.2,3.6-1.6,7-4.6,9C548.8,591.4,525.8,597.5,500.1,597.5z M361.3,495
	c4.2,0,8,2.6,9.5,6.7c6.9,19.4,21.1,35.2,44.6,49.7c23.4,14.6,47.1,23.1,70.2,25.3c15.4,1.4,36.1,1.2,55.5-6.4
	c-33.8-23.9-57.7-63.7-61.4-104.1c-0.3-3.5,1.2-6.9,4.1-9c52.6-38.6,86.4-107.9,90.6-185.4c2.2-42.2-4.6-77.8-20.4-105.9
	c-8.6-15.1-20.4-29.5-35.9-43.9C459.3,65.6,382.9,30.8,303,23.9c-24-2.2-44.4-1.5-62.6,2.3c-28.3,6-55.3,19.5-79.2,31.4
	c-26.7,13.4-57,28.5-79.5,51c-50.1,50.6-56.5,134-56.5,200.9c0,34.1,0.7,64.7,8.7,94.6c8.4,32.5,25.1,58.9,47,74.5
	c27.7,19.8,63.6,23.3,101,25.4c57.5,3.4,118.7,4.6,177-8.8C359.8,495.1,360.5,495,361.3,495z"/>
<path class="st1" d="M84.2,365.5c0,0-0.1,0-0.1,0c-5.5-0.1-10-4.6-10-10.1c0-0.2,0-0.5,0-0.7c1.1-52.6,0.9-100.4-0.5-146.1
	c-0.2-5.6,4.2-10.2,9.8-10.4c5.7-0.2,10.2,4.2,10.4,9.8c1.3,43.4,1.6,88.8,0.7,138.3c0.2,0.8,0.3,1.7,0.3,2.6c0,1.4-0.1,2.9-0.3,4.4
	c-0.1,0.6-0.2,1.2-0.2,1.8c0,0.2,0,0.4,0,0.6C94.1,361.1,89.6,365.5,84.2,365.5z"/>
<path class="st1" d="M148.2,365.5c-0.6,0-1.3-0.1-1.9-0.2c-5.5-1.1-9-6.3-8-11.8c2.7-13.8,4.8-28.7,2.5-43.3
	c-2.3-14.1-9.2-25.5-18.5-30.5c-8.9-4.8-21-2-25.9,6c-2.9,4.7-9.1,6.2-13.9,3.3c-4.7-2.9-6.2-9.1-3.3-13.9
	c10.6-17.2,34.2-23.1,52.7-13.2c14.8,8,25.6,24.8,28.8,45c2.9,17.8,0.3,35.5-2.6,50.4C157.1,362.2,152.9,365.5,148.2,365.5z"/>
<path class="st1" d="M313.4,358c-5.6,0-10.1-4.5-10.1-10.1V193.7c0-5.6,4.5-10.1,10.1-10.1c5.6,0,10.1,4.5,10.1,10.1v154.2
	C323.5,353.4,319,358,313.4,358z"/>
<path class="st1" d="M369.3,358c-0.1,0-0.1,0-0.2,0c-5.6-0.1-10-4.7-9.9-10.3c0.5-28.1,0.9-56.4,1.3-84.7c0.4-28,0.7-56,1.2-84.1
	c0.1-5.6,4.7-10,10.3-9.9c5.6,0.1,10,4.7,9.9,10.3c-0.5,28-0.9,56-1.3,84c-0.4,28.4-0.8,56.6-1.3,84.8
	C379.3,353.6,374.8,358,369.3,358z"/>
<path class="st1" d="M448.9,358.5c-10.9,0-20.8-3.3-28.1-9.4c-9.8-8.6-14.5-22.4-13.7-39.9c0.6-15.9,5.4-30,13.7-40.5
	c10.1-13,24.8-20,39.1-18.6c13.6,1.3,25.3,10,32.2,23.8c5.9,10.5,6.6,23.4,6.6,32.2c0,15.9-3.8,28-11.6,36.9
	C478.5,352.8,464.6,358.5,448.9,358.5z M456.3,270c-6.9,0-14.1,4-19.5,11c0,0,0,0-0.1,0.1c-5.6,7.1-9,17.4-9.4,28.9
	c-0.3,7.9,0.5,18.4,6.7,23.8c4.7,3.9,11.4,4.5,15,4.5c9.7,0,18.4-3.2,23.2-8.7c4.4-5,6.5-12.7,6.5-23.6c0-6.5-0.4-16-4.3-22.8
	c-4-8-9.8-12.5-16.4-13.2C457.4,270.1,456.8,270,456.3,270z M428.8,274.8L428.8,274.8L428.8,274.8z"/>
<path class="st1" d="M223.7,358.5c-10.9,0-20.8-3.3-28.1-9.4c-9.8-8.6-14.5-22.4-13.7-39.9c0.6-15.9,5.4-29.9,13.7-40.5
	c9.7-12.9,24-19.8,38.2-18.7c13.8,1.1,25.9,9.8,33.1,23.7c6,10.6,6.7,23.6,6.7,32.4c0,15.9-3.8,28-11.6,36.9
	C253.3,352.8,239.4,358.5,223.7,358.5z M230.7,270c-6.9,0-13.9,4-19.1,10.9c-0.1,0.1-0.1,0.1-0.2,0.2c-5.6,7.1-9,17.4-9.4,28.9
	c-0.3,7.9,0.5,18.4,6.7,23.8c4.7,3.9,11.4,4.5,15,4.5c9.7,0,18.4-3.2,23.2-8.7c4.4-5,6.5-12.7,6.5-23.6c0-6.5-0.4-16-4.2-22.8
	c-4.2-8.1-10.2-12.7-17.1-13.2C231.6,270,231.2,270,230.7,270z M203.6,274.8L203.6,274.8L203.6,274.8z"/>
<path class="st1" d="M274.1,358c-3.3,0-6.5-1.6-8.4-4.5c-5.2-7.8-7-15.4-7.7-20.5c-4.1-25.9-1.8-47.8,2-78.1
	c0.7-5.5,5.8-9.4,11.3-8.7c5.5,0.7,9.4,5.7,8.7,11.3c-3.6,28.6-5.8,49.2-2.1,72.7c0.3,2.7,1.3,7.3,4.5,12.1c3.1,4.6,1.8,10.9-2.8,14
	C278,357.4,276,358,274.1,358z"/>
</svg>
