<?xml version="1.0" encoding="UTF-8"?>
<svg id="Laag_1" data-name="Laag 1" xmlns="http://www.w3.org/2000/svg" viewBox="0 0 35.64 15.11">
  <defs>
    <style>
      .cls-1 {
        fill: #1d1d1b;
        stroke-width: 0px;
      }
    </style>
  </defs>
  <path class="cls-1" d="M1.88,8.94c5.32-.74,10.74-.88,16.1-.43,2.7.22,5.38.61,8.09.71s5.38-.13,8.03-.57c1.9-.31,1.09-3.2-.8-2.89-5.49.9-10.79.07-16.28-.32s-10.65-.13-15.94.61c-1.9.27-1.09,3.16.8,2.89h0Z"/>
  <path class="cls-1" d="M25.92,2.55c1,1.13,2.11,2.14,3.31,3.05.55.42,1.11.81,1.69,1.18.29.18.59.36.89.53.24.14.63.45.91.49.01,0,.01,0,0-.01,0-.32.06-.63.18-.94-.05,0-.21.18-.24.2-.31.24-.62.48-.92.73-.59.48-1.17.98-1.73,1.49-1.13,1.03-2.19,2.13-3.19,3.28-.53.61-.6,1.52,0,2.12.54.54,1.59.61,2.12,0,1.14-1.32,2.37-2.56,3.68-3.72.61-.53,1.23-1.05,1.86-1.55.82-.64,1.37-1.45,1.07-2.55-.26-.96-1.05-1.48-1.87-1.93-.73-.39-1.43-.83-2.11-1.3-1.31-.91-2.48-2.01-3.53-3.2-.54-.61-1.57-.55-2.12,0-.6.6-.54,1.51,0,2.12h0Z"/>
</svg>